<?xml version="1.0" encoding="UTF-8"?>
<svg viewBox="0 0 500 400" xmlns="http://www.w3.org/2000/svg" xmlns:xlink="http://www.w3.org/1999/xlink">
 <defs>
  <filter id="ad">
   <feGaussianBlur stdDeviation="2.7532"/>
  </filter>
  <filter id="ac">
   <feGaussianBlur stdDeviation="3.2942"/>
  </filter>
  <filter id="ab">
   <feGaussianBlur stdDeviation=".9486"/>
  </filter>
  <filter id="aa">
   <feGaussianBlur stdDeviation=".5935"/>
  </filter>
  <filter id="h">
   <feGaussianBlur stdDeviation="1.9811"/>
  </filter>
  <filter id="z">
   <feGaussianBlur stdDeviation="3.4006"/>
  </filter>
  <filter id="x">
   <feGaussianBlur stdDeviation="2.7038"/>
  </filter>
  <filter id="y" x="-.0469" y="-.402" width="1.0938" height="1.804">
   <feGaussianBlur stdDeviation="4.5378"/>
  </filter>
  <linearGradient id="a">
   <stop stop-color="#e4a764" offset="0"/>
   <stop stop-color="#f3e4aa" offset="1"/>
  </linearGradient>
  <linearGradient id="b">
   <stop stop-color="#e4ac6f" offset="0"/>
   <stop stop-color="#f6eeb6" offset="1"/>
  </linearGradient>
  <linearGradient id="w" x1="726.46" x2="723.45" y1="23.1" y2="9.075" gradientUnits="userSpaceOnUse">
   <stop stop-color="#fff42e" offset="0"/>
   <stop stop-color="#f3d16c" offset="1"/>
  </linearGradient>
  <linearGradient id="v" x1="691.02" x2="693.07" y1="429.95" y2="354.01" gradientUnits="userSpaceOnUse">
   <stop stop-color="#666" offset="0"/>
   <stop stop-color="#ccc" offset="1"/>
  </linearGradient>
  <linearGradient id="u" x1="1196.3" x2="955.32" y1="342.68" y2="154.01" gradientTransform="matrix(-1 0 0 1 1975.5 -59.988)" gradientUnits="userSpaceOnUse">
   <stop stop-color="#808080" offset="0"/>
   <stop stop-color="#e6e6e6" offset="1"/>
  </linearGradient>
  <linearGradient id="t" x1="542.02" x2="1089.5" y1="364.73" y2="100.66" gradientTransform="matrix(.99819 -.06018 .06018 .99819 -17.559 46.941)" gradientUnits="userSpaceOnUse">
   <stop stop-opacity=".5" offset="0"/>
   <stop stop-opacity="0" offset="1"/>
  </linearGradient>
  <linearGradient id="s" x1="991.37" x2="1175.6" gradientUnits="userSpaceOnUse">
   <stop stop-color="#afdde9" stop-opacity="0" offset="0"/>
   <stop stop-color="#afdde9" stop-opacity=".498" offset=".5"/>
   <stop stop-color="#afdde9" stop-opacity="0" offset="1"/>
  </linearGradient>
  <linearGradient id="r" x1="1051.5" x2="1114.1" gradientUnits="userSpaceOnUse">
   <stop stop-color="#6e5045" offset="0"/>
   <stop stop-color="#6c6753" offset=".5"/>
   <stop stop-color="#6e5045" offset="1"/>
  </linearGradient>
  <radialGradient id="o" cx="713.07" cy="7.826" r="23.775" gradientTransform="matrix(1 0 0 .33813 0 5.1798)" gradientUnits="userSpaceOnUse">
   <stop stop-color="#ffe680" offset="0"/>
   <stop stop-color="#fced3b" offset="1"/>
  </radialGradient>
  <radialGradient id="n" cx="720.83" cy="265.18" r="177.06" gradientTransform="matrix(1 0 0 .14208 0 227.5)" gradientUnits="userSpaceOnUse">
   <stop stop-color="#ccc" offset="0"/>
   <stop stop-color="#f2f2f2" offset="1"/>
  </radialGradient>
  <radialGradient id="m" cx="720.83" cy="265.18" r="177.06" gradientTransform="matrix(1.1578 0 0 .2211 -113.77 206.55)" gradientUnits="userSpaceOnUse">
   <stop stop-color="#b3b3b3" offset="0"/>
   <stop stop-color="#e6e6e6" offset="1"/>
  </radialGradient>
  <radialGradient id="l" cx="1087.5" cy="43.609" r="124.96" gradientTransform="matrix(.99678 -.08379 .03812 .49471 1.8424 113.16)" gradientUnits="userSpaceOnUse">
   <stop offset="0"/>
   <stop stop-opacity="0" offset="1"/>
  </radialGradient>
  <radialGradient id="k" cx="1212.8" cy="216.52" r="87.734" gradientTransform="matrix(1.1482 0 0 1.6084 -309.67 -231.79)" gradientUnits="userSpaceOnUse">
   <stop stop-color="#894931" offset="0"/>
   <stop stop-color="#c66620" offset=".5"/>
   <stop stop-color="#dc7f18" offset="1"/>
  </radialGradient>
  <radialGradient id="j" cx="1083.7" cy="111.96" r="56.423" gradientTransform="matrix(1 0 0 1.3091 0 -34.61)" gradientUnits="userSpaceOnUse">
   <stop stop-color="#f00" offset="0"/>
   <stop stop-color="#a00" offset="1"/>
  </radialGradient>
  <radialGradient id="i" cx="1086" cy="100.18" r="42.284" gradientTransform="matrix(1.0219 -.52305 .50879 .99405 -74.757 568.62)" gradientUnits="userSpaceOnUse">
   <stop stop-color="#f00" offset="0"/>
   <stop stop-color="#ffd42a" offset="1"/>
  </radialGradient>
  <radialGradient id="g" cx="463.69" cy="242.49" r="124.97" gradientTransform="matrix(1.7829 .0219 -.00376 .3058 -362.1 47.273)" gradientUnits="userSpaceOnUse" xlink:href="#b"/>
  <radialGradient id="q" cx="445.51" cy="74.28" r="121.29" gradientTransform="matrix(1.3618 .04757 -.01756 .50284 -160 12.159)" gradientUnits="userSpaceOnUse" xlink:href="#a"/>
  <radialGradient id="f" cx="126.94" cy="174.96" r="146.81" gradientTransform="matrix(1.7755 .02766 -.00705 .2999 -97.207 15.206)" gradientUnits="userSpaceOnUse" xlink:href="#b"/>
  <radialGradient id="e" cx="84.795" cy="30.58" r="145.65" gradientTransform="matrix(1 0 0 .1188 0 37.607)" gradientUnits="userSpaceOnUse" xlink:href="#a"/>
  <radialGradient id="p" cx="488.67" cy="65.667" r="121.29" gradientTransform="matrix(1.33 .03974 -.02666 .65848 -152.67 5.0435)" gradientUnits="userSpaceOnUse" xlink:href="#a"/>
  <radialGradient id="d" cx="463.69" cy="242.49" r="124.97" gradientTransform="matrix(1.4997 -.12503 .02408 .2047 -266.62 -30.282)" gradientUnits="userSpaceOnUse" xlink:href="#b"/>
  <radialGradient id="c" cx="488.67" cy="65.667" r="121.29" gradientTransform="matrix(1.1209 -.07763 .03625 .44224 -94.451 -74.916)" gradientUnits="userSpaceOnUse" xlink:href="#a"/>
 </defs>
 <g transform="matrix(.75699 0 0 .75699 -339.1 193.32)">
  <g transform="translate(-2.0649 -188.58)" filter="url(#x)" opacity=".6054">
   <path d="m553.5 332.17 302.4-2.7367s-11.466 28.286-23.262 36.682c-34.081 24.257-80.32 28.341-122.15 28.788-48.624 0.52006-104.92 0.22903-142.67-30.42-9.1461-7.4252-14.315-32.313-14.315-32.313z"/>
   <path d="m540.61 327.17 330.65-2.7367s-12.537 28.286-25.434 36.682c-37.265 24.257-87.822 28.341-133.56 28.788-53.166 0.52006-114.72 0.22903-156-30.42-10-7.4252-15.652-32.313-15.652-32.313z" filter="url(#h)" opacity=".3"/>
   <path transform="matrix(1.1093 0 0 2.7157 -98.13 -402.07)" d="m897.89 265.18c0 13.894-79.274 25.156-177.06 25.156s-177.06-11.263-177.06-25.156 79.274-25.156 177.06-25.156 177.06 11.263 177.06 25.156z"/>
   <path transform="matrix(1.1093 0 0 2.7157 -97.446 -404.07)" d="m897.89 265.18c0 13.894-79.274 25.156-177.06 25.156s-177.06-11.263-177.06-25.156 79.274-25.156 177.06-25.156 177.06 11.263 177.06 25.156z"/>
   <path transform="matrix(1.015 0 0 2.3119 -30.183 -301.33)" d="m897.89 265.18c0 13.894-79.274 25.156-177.06 25.156s-177.06-11.263-177.06-25.156 79.274-25.156 177.06-25.156 177.06 11.263 177.06 25.156z"/>
  </g>
  <path transform="matrix(.81256 0 0 .77795 13.698 81.388)" d="m1203.6 43.609c0 7.4811-51.983 13.546-116.11 13.546s-116.11-6.0646-116.11-13.546 51.983-13.546 116.11-13.546 116.11 6.0646 116.11 13.546z" fill="url(#l)" filter="url(#y)" opacity=".3"/>
  <g transform="translate(-188.15 -127.61)">
   <path d="m1107.9-105.91c-1.1838-0.0247-2.5956 0.24457-4.25 0.8125-6.7847-0.76017-13.623-0.6554-20.438-0.65625-9.1155 0.6795-23.197-0.88686-29.625 3.4688-2.0088 12.553-1.4316 25.552-0.094 37.969 4.4787 24.097-4.6474 38.175-12.969 50.062-8.3399 16.742-21.978 29.809-32.312 45.125-14.277 21.718-18.15 48.068-17.406 73.562-1.0913 24.485 3.1233 48.718 9.6875 72.219 3.3427 13.932 6.6424 27.886 10.5 41.688 9.9162 4.5582-2.2477 25.91 14.031 24.844 33.866 6.0079 68.656 4.9338 102.81 2.25 17.284 2.297 21.903-13.5 22.844-26.031 7.934-3.7308 6.299-20.078 10.438-28.594 6.4283-25.755 14.469-51.561 13.5-78.438 1.1865-28.921-1.4354-59.673-18.562-84.094-7.885-11.353-17.401-22.267-29.531-29.125-4.3629-8.9277 19.889-12.542 20.687-25.281 2.7337-23.554-11.098-24.805-25.781-30.719-16.47 3.6926-5.9091-18.534-6.5625-27.906-0.9546-7.6343 1.3175-20.983-6.9687-21.156zm17 62.5c2.9887-0.13106 6.2374 1.0184 8.2812 3 2.3869 2.3141 3.3823 6.4783 2.4062 9.6562-1.207 3.9302-9.1874 8.25-9.1874 8.25l-9.1876-13.562s2.2554-5.7825 4.8438-6.7812c0.8853-0.34158 1.8475-0.51881 2.8438-0.5625z" fill="#afdde9" opacity=".3"/>
   <path d="m1107.9-107.26c-1.1838-0.0247-2.5956 0.24457-4.25 0.8125-6.7847-0.76017-13.623-0.6554-20.438-0.65625-9.1155 0.6795-23.197-0.88686-29.625 3.4688-2.0088 12.553-1.4316 25.552-0.094 37.969 4.4787 24.097-4.6474 38.175-12.969 50.062-8.3399 16.742-21.978 29.809-32.312 45.125-14.277 21.718-18.15 48.068-17.406 73.562-1.0914 24.485 3.1232 48.718 9.6875 72.219 3.3426 13.932 6.6423 27.886 10.5 41.688 9.9162 4.5582-2.2478 25.91 14.031 24.844 33.866 6.0079 68.656 4.9338 102.81 2.25 17.284 2.297 21.903-13.5 22.844-26.031 7.934-3.7308 6.299-20.078 10.438-28.594 6.4283-25.755 14.469-51.561 13.5-78.438 1.1865-28.921-1.4354-59.673-18.562-84.094-7.885-11.353-17.401-22.267-29.531-29.125-4.3629-8.9277 19.889-12.542 20.687-25.281 2.7337-23.554-11.098-24.805-25.781-30.719-16.47 3.6926-5.9091-18.534-6.5625-27.906-0.9546-7.6343 1.3175-20.983-6.9687-21.156zm17 62.5c2.9887-0.13106 6.2374 1.0184 8.2812 3 2.3869 2.3141 3.3823 6.4783 2.4062 9.6562-1.207 3.9302-9.1874 8.25-9.1874 8.25l-9.1876-13.562s2.2554-5.7825 4.8438-6.7812c0.8853-0.34158 1.8475-0.51881 2.8438-0.5625z" fill="none" opacity=".1739" stroke="#91dde9" stroke-width="2.7"/>
   <path d="m1019.2262,216.13155c.2576,1.36888.514,2.71107.8678,4.46875 .2491,1.2375.811,2.25 1.2569,2.25s.4629-1.9125.03-4.25c-.1697-.91563-.3053-1.72526-.4191-2.46875h-1.7356zm4.5786,1.21875c-.075.0137-.1231.10484-.1796.28125-.2258.70564-.1767,1.94314.1197,2.75 .8816,2.39905 1.3198,1.67197.7781-1.28125-.2081-1.13438-.494-1.79113-.7182-1.75zm60.6295,4.53125c-3.2558.0133-6.8532.12868-11.4316.28125-10.1713.33893-19.5715.82988-20.8882,1.09375s-4.9796.74597-8.1398,1.0625c-9.3704.93855-14.2831,1.7264-15.8905,2.59375-.9143.49334-2.5589.25846-4.1896-.625-1.4846-.80424-2.8974-1.2557-3.1422-1s-.5851,2.96677-.7482,6.03125c-.2942,5.52751-.281,5.59721 3.232,7.46875 3.0767,1.63906 8.6558,3.03693 17.3868,4.40625 1.3168.20651 4.3333.39725 6.7034.40625 4.046.0145 3.9582-.0368-1.4364-.90625-6.2104-1.00091-11.9703-3.3444-11.9703-4.875 0-.52419-1.0486-.96875-2.3342-.96875s-2.5778-.40754-2.8729-.90625 .2147-.75134 1.1372-.5625 3.1841.56624 5.0275.84375c3.3379.50247 3.3244.5165-.8679-1.4375-4.7481-2.21313-4.9579-3.53559-.2693-1.6875 2.7582,1.08714 3.2026.97566 4.5487-1.03125 1.7798-2.65344 4.6233-2.8065 9.6361-.53125l3.7108,1.6875-2.8729.6875c-1.58.38426-2.0727.7474-1.1073.8125s1.5713.6875 1.3467,1.375-1.3476,1.10957-2.4837.9375c-2.8024-.42443-2.6051.64754.3291,1.8125 2.7135,1.07732 73.0017,1.4718 77.8068.4375 1.7118-.36846 3.1123-1.01235 3.1123-1.4375 0-.73344 2.6633-1.46003 9.0974-2.53125 2.4524-.40831 2.5774-.34322.808.46875-1.1401.52315-2.4533,1.62995-2.9028,2.46875-.694,1.29493-4.825,2.71378-14.1848,4.90625-1.4432.33805-1.2789.4751.6584.5625 3.6476.16458 15.6805-2.5982 18.913-4.34375 2.3124-1.24874 2.7063-2.08462 2.7532-5.625 .062-4.67721-1.0987-6.34748-4.6086-6.5625-1.3167-.0807-8.2116-.87961-15.3219-1.78125-21.9643-2.78523-28.7769-3.57104-38.5443-3.53125zm6.7632,6.5625c.9645.0126 2.0948.43836 2.0948,1.03125 0,.21615-.8906.375-1.9751.375s-1.7179-.41152-1.4066-.9375c.1917-.32377.7082-.47634 1.2869-.46875zm-26.2149.0937c1.3822-.0114 2.4539.10063 2.4539.40625 0,.49766-2.001.90625-4.459.90625s-4.2893-.14443-4.0699-.34375c.603-.54768 3.7712-.94975 6.075-.96875zm32.3197.375c2.6404.0586 2.8528.22139 1.2569.9375-1.9008.85281-1.907.8678.03.9375 2.1804.0785 11.5806,3.37436 12.5688,4.40625 .3495.36497.028.71105-.7182.78125s-2.2086.28444-3.262.46875c-4.5898.80311-11.8276,1.10536-12.6585.53125-1.6484-1.1389-2.1381-5.20032-.6883-5.78125 .7463-.29898 1.1293-.94514.8379-1.4375s.8907-.88245 2.6334-.84375zm-74.9938,2c.4419.0538 1.1535.34389 2.005.90625 .7748.51167 1.1843,1.16953.8978,1.46875s-1.3492-.10442-2.3641-.90625c-1.262-.99693-1.275-1.55842-.5387-1.46875zm88.221.0625c.4339,0 .8679.08 1.197.21875 .6584.27741.1197.5-1.197.5s-1.8554-.22259-1.197-.5c.3291-.1387.7631-.21875 1.197-.21875zm-44.6492.875c.869,0 1.1612.91752.9277,2.75-.1928,1.5125-.051,2.09643.2993,1.28125 1.4151-3.29223 4.9175-5.52734 3.7706-2.40625-.3889,1.05843-.1649,1.43231.6285,1.09375 4.945-2.11007 4.8114-2.13914 4.0699.375-.3896,1.3207-.7719,2.4864-.838,2.5625s-4.2135.36014-9.2171.65625-8.0201.31608-6.7033.0312c2.8626-.61925 5.7457-3.13284 5.7457-5 0-.73975.5998-1.34375 1.3167-1.34375zm70.3853.125c.5207.007 1.0225.0818 1.3467.21875 .6482.27393-.1257.48915-1.7058.46875s-2.0988-.24646-1.1671-.5c.4659-.12674 1.0054-.19422 1.5262-.1875zm-18.135.875c.5578,0 1.0175.45 1.0175,1s-.1867,1-.419,1-.6919-.45-1.0174-1-.1388-1 .4189-1zm-29.1476,1c1.7556,0 2.394.53333 2.394,2s-.6384,2-2.394,2-2.3941-.53333-2.3941-2 .6384-2 2.3941-2zm25.377.125c.4339,0 .8679.08 1.197.21875 .6584.27741.1197.5-1.197.5s-1.8554-.22259-1.1971-.5c.3292-.1387.7632-.21875 1.1971-.21875zm-48.33,9.65625c-7.676.0514-13.0073.21786-12.6287.46875 .6098.40408 14.6816.63211 31.2724.53125s27.1486-.31007 23.4617-.46875c-10.0323-.43177-29.3121-.617-42.1054-.53125z" fill="#08a"/>
   <path d="m1124-9.6514-82.188 1.6562c-8.734 15.216-20.913 27.298-29.937 40.656-0.013 0.0196-0.018 0.0429-0.031 0.0625-13.551 20.651-17.383 46.03-16.656 70.969a4.3888 4.3888 0 0 1 0 0.3125c-1.0632 23.855 3.0464 47.627 9.5313 70.844a4.3888 4.3888 0 0 1 0.062 0.15625c3.2261 13.446 6.4085 26.846 10.062 40.062 2.5979 2.0511 4.0406 5.086 4.5625 7.7812 0.6462 3.3378 0.4854 6.5397 0.5937 9.2188s0.5869 4.6406 1 5.25 0.5978 1.0814 3.75 0.875a4.3888 4.3888 0 0 1 1.0625 0.0625c33.268 5.9019 67.672 4.8602 101.69 2.1875a4.3888 4.3888 0 0 1 0.9063 0.0312c7.2891 0.9687 10.579-1.3682 13.312-5.5312s4.1534-10.632 4.5938-16.5a4.3888 4.3888 0 0 1 2.5 -3.625c0.8142-0.38288 1.5542-1.1331 2.3125-2.75s1.3846-3.9618 1.9063-6.625c0.9912-5.0614 1.5252-11.046 3.8437-16.312 0.01-0.032 0.023-0.0618 0.031-0.0937 6.4649-25.887 14.277-51.255 13.344-77.125a4.3888 4.3888 0 0 1 0 -0.34375c1.1704-28.529-1.5276-58.2-17.781-81.375a4.3888 4.3888 0 0 1 0 -0.0312c-7.693-11.077-16.844-21.452-28.094-27.812a4.3888 4.3888 0 0 1 -1.7813 -1.875c-0.923-1.8889-1.2133-4.1676-0.7187-6.125 0.4065-1.6088 1.2134-2.8947 2.125-4z" fill="url(#k)" opacity=".8"/>
   <path d="m1108.6-107.97c-1.1838-0.0247-2.5956 0.24456-4.25 0.8125-6.7847-0.76018-13.623-0.6554-20.438-0.65625-9.1155 0.6795-23.197-0.88687-29.625 3.4688-2.0088 12.553-1.4316 25.552-0.094 37.969 4.4787 24.097-4.6474 38.175-12.969 50.062-8.3399 16.742-21.978 29.809-32.312 45.125-14.277 21.718-18.15 48.068-17.406 73.562-1.0913 24.485 3.1233 48.718 9.6875 72.219 3.3427 13.932 6.6424 27.886 10.5 41.688 9.9163 4.5582-2.2477 25.91 14.031 24.844 33.866 6.0079 68.656 4.9338 102.81 2.25 17.284 2.297 21.903-13.5 22.844-26.031 7.9341-3.7308 6.2991-20.078 10.438-28.594 6.4283-25.755 14.469-51.561 13.5-78.438 1.1865-28.921-1.4354-59.673-18.562-84.094-7.8851-11.353-17.401-22.267-29.531-29.125-4.3629-8.9277 19.889-12.542 20.687-25.281 2.7337-23.554-11.098-24.805-25.781-30.719-16.47 3.6926-5.9091-18.534-6.5625-27.906-0.9546-7.6343 1.3175-20.983-6.9687-21.156zm17 62.5c2.9887-0.13106 6.2374 1.0184 8.2812 3 2.3869 2.3141 3.3823 6.4783 2.4062 9.6562-1.207 3.9302-9.1874 8.25-9.1874 8.25l-9.1876-13.562s2.2554-5.7825 4.8438-6.7812c0.8853-0.34158 1.8475-0.51881 2.8438-0.5625z" fill="url(#s)" opacity=".3"/>
   <path d="m1111.8347-65.93134c-.7042.02048-1.7625.16638-3,.375-2.475.41723-6.975,1.09783-10,1.53125-5.4135.77565-5.3899.78305 1.5.46875 7.2887-.3325 11.359-1.02497 12.4063-2.125 .169-.17754-.2021-.27048-.9063-.25zm-53.2813.5625c-1.3288.01304-1.7187.36578-1.7187,1.125 0,.81806.2099,1.25876.4687,1s3.5214.09276 7.25.78125 8.3563,1.05284 10.2813.8125 5.975-.44595 9-.46875c9.4375-.07107 3.3284-1.85534-7.0625-2.0625-5.1887-.10344-11.8-.49773-14.6875-.875-1.6079-.21008-2.7341-.32032-3.5313-.3125zm52.2813,3.0625v5.34375c-.011,3.82626-.3074,4.94678-1,3.875-.593-.91753-.9588-1.04671-.9687-.3125-.01.66017.5724,1.56017 1.3124,2s1.6178,2.1625 1.9376,3.8125 1.1358,4.35 1.8124,6c.9485,2.3135 1.3337,2.57773 1.6563,1.21875 .2301-.96924.8013-1.51547 1.2813-1.21875s.1757-1.52889-.6876-4.0625c-.8876-2.60498-1.3457-6.23162-1.0624-8.34375 .4048-3.01896.017-4.17978-1.9063-6.03125l-2.375-2.28125zm-46.5625,12c-.1294.06976-.2063.6875-.2188,1.71875-.02,1.65.1639,2.42703.4376,1.75s.3157-2.02703.062-3c-.095-.36486-.2035-.51061-.2812-.46875zm-.5938,6.59375c-.4721.23254-2.269,5.47353-2.7812,8.375-.024.1375.3312.25.8125.25 .9492,0 2.1711-4.95354 2.0625-8.375-.01-.19155-.026-.28322-.094-.25zm66.7188,1.0625c-.2246.04867-.2283.24364-.031.5625 .3361.5437 1.0136,1 1.5312,1 1.4384,0 1.1386-.74146-.5938-1.40625-.2226-.08537-.4364-.1328-.5937-.15625-.118-.01759-.2376-.01622-.3125,0zm-19.75,2.625c-.141-.0358-.3983.29655-.8125.9375-.5332.825-.9588,2.07917-.9687,2.8125s.4712,1.16584 1.0624.96875 1.0409-.66375 1-1.0625-.084-1.50625-.094-2.46875c-.01-.74778-.046-1.15171-.1875-1.1875zm-56.75,1.65625c-.032.0167-.062.0731-.062.125 0,.415.5317,1.25036 1.1563,1.875 .8478.84762.7209,1.56047-.5,2.78125-.8995.89969-1.6463,1.26428-1.6563.8125s-.425-.15424-.9375.65625c-.5958.94206-.5781,1.70996.094,2.125 .7306.45182.7208,1.25056-.031,2.65625-1.0552,1.97158-.7911,2.03235 10.6563,2.09375 8.3097.0446 11.0629-.22914 9.4687-.90625-6.5966-2.8017-6.8962-3.01197-3.25-2.4375 7.9928,1.25931 20.966,1.60035 27.75.75 3.9875-.4998 7.25-.54439 7.25-.09375s-1.4625.83575-3.25.84375c-2.4663.0116-2.8883.2644-1.75,1 3.0965,2.00116 15.5935.39473 19.7813-2.53125 .1448-.10111-.4417-1.83427-1.2813-3.84375-1.3646-3.26604-1.7285-3.52424-3.4687-2.4375-1.2102.75573-1.5381,1.46511-.875,1.875 1.8469,1.14148-.5759,1.86178-6.75,1.96875-14.1633.24536-39.9922-.42474-40.9063-1.0625-.55-.38369-2.2526-1.0018-3.8125-1.375s-3.9223-1.76612-5.25-3.09375c-1.1616-1.16169-2.1489-1.89819-2.375-1.78125zm30.9375,4.375c-.6344,0-1.2687.093-1.75.21875-.9625.25153-.175.4375 1.75.4375s2.7125-.18597 1.75-.4375c-.4812-.12576-1.1156-.21875-1.75-.21875zm7.875,0c-.725-.004-1.4717.0679-2.0937.1875-1.2438.2392-.4813.45765 1.7187.46875s3.2375-.1872 2.2813-.4375c-.4781-.12516-1.1813-.21509-1.9063-.21875zm-34.3125,1.125c.1174-.01953.2644-.01505.4062,0 .1891.0201.4076.0728.625.15625 .8699.33384 1.9949.625 2.5.625s.9063.45.9063,1-.3375.9388-.75.875c-2.6992-.41747-4.25-1.16895-4.25-2.0625 0-.31979.2103-.53516.5625-.59375zm22.5,2.78125c.5824,0 .7774.45.4375,1s-.8199,1-1.0625,1-.4375-.45-.4375-1 .48-1 1.0625-1zm40.5312,6.40625c-.6022.0671-.6361.91893-.375,3.15625 .4002,3.42759.1897,3.69954-4.1562,5.71875-2.5075,1.16504-4.6905,2.4644-4.875,2.90625s-.7454.56188-1.25.25c-1.3789-.85222-9.9846.63854-9.375,1.625 .2907.47038 1.8008.59608 3.375.28125s3.6859-.12299 4.6875.4375c1.5964.89341 1.3873,1.15817-1.6563,2.03125-2.9033.83281-3.0594,1.0039-.9687,1.0625 1.375.0386 5.4108-.36082 8.9687-.875 4.2557-.6151 6.6863-.56562 7.0938.09375 .3804.61551 1.0739.42121 1.8125-.46875 .6616-.79707 2.335-1.72306 3.6875-2.0625 2.7195-.68256 3.0332-2.18587 1.2812-6.03125-.8167-1.79216-1.6976-2.39351-2.9374-2-1.8581.58976-4.465-2.80629-3.4376-4.46875 .2972-.481-.1796-1.13002-1.0624-1.46875-.3328-.12774-.6118-.20986-.8126-.1875zm-6.5624,3.15625c-.3533.005-.7662.04535-1.2188.09375-9.596,1.02665-16.6554,1.39357-29.75,1.53125-12.9547.13622-14.1007.2661-11,1.40625 1.9038.70002 5.0125,1.06644 6.9375.8125 1.925-.25393 9.125-.48805 16-.53125 11.4946-.0723 18.3069-1.01754 20.3125-2.84375 .3265-.29741-.2215-.48522-1.2812-.46875zm-62.5313.15625c-1.6366.053-2.0014.40073-2.2187,1.03125-.2653.76933.1193,1.00618 1.0312.65625 .8154-.31287 1.719-.2 2,.25 .4513.72283 6.5279.95954 13.625.5 4.1253-.26711 1.5348-1.29227-4.5938-1.8125-5.3166-.45131-8.2071-.678-9.8437-.625zm-6.7187,1.9375c-.2973.0305-.9426.70939-1.8438,2.1875-1.4349,2.35393-1.8511,4.2244-1.4062,6.25 .7016,3.19463 2.4508,4.43891 8.1562,5.78125 2.0954.49298 5.3875.892 7.3125.875 2.6735-.0236 2.2013-.2448-2-.96875-9.1971-1.58479-10.4402-2.89929-2.25-2.375 4.1966.26864 7.25.0764 7.25-.46875 0-.518-1.0125-.9651-2.25-1l-2.25-.0625 2.25-.90625c3.4733-1.39611 2.6781-2.79647-2-3.5-4.5688-.6871-7.0702-2.07771-8-4.46875-.3872-.99589-.6044-.75178-.6563.78125-.043,1.26996-.4678,2.07147-.9374,1.78125s-1.3802.66492-2.0313,2.09375-1.4237,2.35746-1.7187,2.0625c-.2951-.29497.1657-1.91995 1.0312-3.59375 1.4355-2.77593 1.8394-4.51951 1.3438-4.46875zm70.6874,13.40625c-.5648-.019-1.6268.0824-3.2187.3125-2.3375.33783-6.0215.86465-8.2187,1.1875s-4.2698,1.03832-4.5938,1.5625c-.339.54858.4067.73306 1.75.4375 1.2836-.28242 4.9979-.96874 8.25-1.53125 5.1096-.88382 7.7254-1.91179 6.0312-1.96875zm-53.9687,1.21875c-.3118.0584-.5.23129-.5.53125 0,.574 1.4625,1.20918 3.25,1.40625 4.4247.48783 34.5015.74169 33.25.28125-.55-.20235-8.2-.58709-17-.84375s-16.7875-.76262-17.75-1.15625c-.503-.20571-.9382-.27717-1.25-.21875zm-14.8437,1.09375c-.2276.003-.4076.03255-.4688.09375-1.0104,1.01039 4.9127,2.66374 14.3125,4 6.9924.99401 15.1128,1.26782 27,.90625 18.2318-.55457 24.986-1.41183 26.8437-3.40625 .9249-.993.6334-1.11389-1.3437-.59375-1.375.36173-7.8773,1.1685-14.4687,1.78125-12.6073,1.172-41.3868-.11685-48.4688-2.15625-1.4165-.40789-2.7233-.6341-3.4062-.625z" fill="#80e5ff" opacity=".3"/>
  </g>
  <path transform="translate(-188.15 -127.61)" d="m1079.5 34.292c-18.519 2.2201-37.038 12.891-46.526 29.573-6.3916 10.767-10.337 23.151-9.4379 35.77 1.3138 27.172 5.6593 54.088 7.8392 81.191-0.318 9.6432 11.734 6.5058 17.963 7.8337 26.402 1.4251 52.461 1.4423 78.873-0.8071 9.1921 1.1334 7.8202-9.3818 8.5804-15.559 2.172-25.259 6.4014-50.366 7.0816-75.736 0.3251-15.018-6.1245-29.583-15.46-41.095-10.457-12.245-26.461-20.004-42.175-21.175-2.2468 0.05046-4.4912-0.01613-6.7386 0.0053z" fill="#fff" stroke="#000"/>
  <path transform="translate(-188.15 -127.61)" d="m1079.8 38.094c-17.32 2.1339-34.751 12.274-43.5 27.656a3.8122 3.8122 0 0 1 -0.031 0.0625c-6.0892 10.258-9.7364 21.876-8.9062 33.531a3.8122 3.8122 0 0 1 0 0.09375c1.3001 26.888 5.6475 53.756 7.8438 81.062a3.8122 3.8122 0 0 1 0 0.4375c-0.054 1.6245 0.2209 1.8434 0.5624 2.1562s1.2546 0.7651 2.75 1c2.8561 0.44862 7.0319 0.0434 11.063 0.78125v-0.0312c26.268 1.4179 52.143 1.4188 78.344-0.8125a3.8122 3.8122 0 0 1 0.7813 0.0312c1.5986 0.19711 1.9878-0.0823 2.2812-0.3125s0.7055-0.79462 1.0312-1.9688c0.6422-2.3149 0.6061-6.2316 1.0313-9.8125h-0.031c0-0.053 0.027-0.1033 0.031-0.15625 2.1933-25.409 6.3619-50.379 7.0313-75.344 0.2997-13.844-5.7055-27.583-14.563-38.531l-0.062-0.0625c-9.731-11.354-24.839-18.691-39.469-19.781-2.155 0.03659-4.2334-0.01258-6.1875 0z" fill="url(#j)"/>
  <path transform="translate(-188.15 -127.61)" d="m1058.9375,56.34375c-.388.0643.1035,2.13228 1.4687,5.84375 .6136,1.66753 1.5357,4.7228 2.0313,6.78125 .858,3.56257.8424,3.75965 0,4.375-.6287.45977-1.245.50266-2.1563.15625-1.6754-.63703-1.8907-.33611-1,1.40625 1.3754,2.69068 1.5455,4.54826.4688,5.625-.5393.53921-1.3053,1.11814-1.6875,1.28125-.723.30861-.7516.30358 4.7187,4.5625 2.771,2.15729 3.1626,2.82548 2.7188,4.59375-.2089.83259-.8885,1.40442-2.125,1.8125-1.8299.60391-8.2299.71956-9.9062.1875-1.1705-.37151-1.1237.09996.125,1.6875 .556.70664.9999,1.68806 1,2.1875 0,1.0092-1.9929,2.55259-4.3126,3.375-.3114.1104-.5255.20629-.6874.28125l-1.9376.34375h-.125c-.064.007-.1368.0145-.1874.0312l-.2188.0312 .031.125c-.2473.262-.04.76081.625,1.3125 1.0113.83924.9236,3.03141-.1562,4.375-.4802.59742-2.0168,1.69344-3.4062,2.40625-2.8458,1.45975-5.1495,3.1375-4.7813,3.5 .1349.13268 2.2642-.2101 4.7187-.78125 4.2429-.98723 4.5487-.99884 6.25-.1875 1.663.79304 1.739.99149 1.4688,2.65625-.2523,1.55533-.1527,1.71375.5938,1.375 .4728-.21461 1.9999-.45198 3.4062-.5625 3.2598-.25621 4.2785.63738 3.375,3.03125-.3256.86263-.5402,1.61602-.4688,1.6875s1.555-.56634 3.3126-1.4375c2.1386-1.06002 3.9895-1.60585 5.5624-1.625 2.1218-.0259 2.3728.0965 2.5313,1.21875 .1831,1.29829-2.533,7.1255-3.8125,8.1875-.6084.50486-.4789.70706.8125,1.25 2.3837,1.00234 2.0243,2.84983-1.6563,8-1.4402,2.01528-.663,2.11059 2.1876.28125 1.5152-.97229 3.486-1.75674 4.8124-1.90625 2.0975-.23641 2.2723-.15141 2.7813,1.1875l.5625,1.4375 .5938-1.1875c.3322-.65577 1.0286-1.47605 1.5312-1.78125 1.3644-.82853 2.4575.88407 2.0312,3.15625-.2321,1.23796-.1591,1.65922.25,1.40625 .3164-.19553.5939-.93768.5938-1.625 0-1.58576 1.0969-4.25325 2.2188-5.375 1.0944-1.09463 3.6207-1.13278 4.0312-.0625 .1689.43961.3126,2.73908.3125,5.125s.1642,4.17972.3437,4 1.7194-4.70695 3.4376-10.0625 3.5007-10.63387 3.9687-11.71875c.4299-.99673.6899-1.87627.625-2.125l.5313-1.09375 .1874,3.4375h.1563c-.076,1.62005.4532,8.2788 1.1875,14.875l1.75-2.3125c-.9153-4.23118-1.0625-6.25337-1.0625-10.5v-6.1875l1.625.375c3.4611.80359 19.9579-.0293 19.75-1-.054-.2529-.9641-.7689-2-1.125s-2.5821-1.35333-3.4375-2.21875l-1.5312-1.5625 1.3437-1.09375c.7604-.60997 2.0208-1.59579 2.7813-2.1875 1.1259-.87602 1.2791-1.24374.7812-1.84375-.4937-.59477-.4125-.92877.5-1.75 .6219-.55961 1.5695-1.15758 2.0938-1.34375 .9029-.32066.9148-.40491.094-1.3125-1.0042-1.10943-.7729-1.73892 2.0937-5.6875 1.4979-2.06322 1.6265-2.40625.8126-2.40625-.5208,0-1.8472.44416-2.9376,1-2.8194,1.43742-4.6927,1.347-5.0937-.25-.1743-.6948-.4061-1.25-.5-1.25s-1.585.83134-3.3125,1.84375c-2.3929,1.40254-3.326,1.70731-3.9375,1.3125-.4414-.28499-.7215-.94977-.625-1.46875 .3232-1.73986 4.625-7.21173 6.9063-8.78125 1.2418-.85437 2.2812-1.64713 2.2812-1.75s.1143-.53387.2812-.96875c.2599-.67717.092-.70703-1.2187-.25-1.7402.60661-3.625-.10081-3.625-1.34375 0-.4063.7942-1.5983 1.75-2.65625l1.7187-1.90625-1.4687-.5625c-2.1132-.79761-2.0208-3.11451.2813-6.9375 .9728-1.61536 1.75-3.03224 1.75-3.15625 0-.44508-2.1531.46654-3.9063,1.65625-2.9769,2.02032-4.1562,1.50405-4.1563-1.84375 0-.92538-.1049-1.41996-.375-1.40625-.3468.0176-.9794.81956-1.9374,2.46875-2.7716,4.77021-5.3037,4.86218-6,.21875-.3567-2.37791-1.0014-2.63744-1.4376-.625-.034.15736-.078.34383-.125.53125l-2.125,4.0625c-.1967.21031-.4112.43666-.625.6875-4.6367,5.43916-5.5153,5.93046-8.2187,4.375-1.8641-1.07264-3.0558-3.18565-4.0937-7.25-.7578-2.96659-1.129-3.23912-2.0313-1.46875-.8866,1.74012-2.3724,2.40369-4.1563,1.90625-1.1966-.3337-1.8339-1.01327-2.75-2.96875-1.1656-2.48876-2-3.2333-2-1.78125 0,1.17673-1.0946,3.20051-1.875,3.5-1.9733.75722-6.7183-3.17748-9.3124-7.71875-.8536-1.49444-1.4234-2.16361-1.6563-2.125z" fill="url(#i)"/>
  <path transform="translate(-188.15 -127.61)" d="m1058.4688,56.65625c-.388.06435.072,2.13228 1.4374,5.84375 .6137,1.66753 1.5357,4.72281 2.0313,6.78125 .8577,3.56258.8415,3.7909 0,4.40625-.6288.45977-1.2451.50266-2.1563.15625-1.6754-.63703-1.8906-.36736-1,1.375 1.3756,2.69068 1.5455,4.57951.4688,5.65625-.5392.53921-1.3054,1.08689-1.6875,1.25-.7232.30861-.7516.30357 4.7187,4.5625 2.7706,2.15728 3.1626,2.82549 2.7188,4.59375-.2089.83259-.8885,1.40441-2.125,1.8125-1.8299.6039-8.2298.75082-9.9062.21875-1.1704-.3715-1.1239.06868.125,1.65625 .5558.70664 1,1.68806 1,2.1875 0,1.00921-1.9928,2.58384-4.3126,3.40625-1.1498.40764-1.256.5323-.4687.5625 .5709.022 2.1338-.65337 3.4687-1.5 2.504-1.58794 2.6448-2.05239 1.5313-4.71875-.3706-.88774-.1944-.94834 2.3437-.6875 3.5175.36147 6.9287-.42926 8.6563-2.03125 1.2689-1.17666 1.3079-1.36495.6563-2.625-.6999-1.35357-3.3162-3.87291-6.0626-5.84375l-1.4687-1.0625 1.1563-1.15625c.8968-.89713 1.1079-1.56475.9374-3-.1206-1.01555-.38-2.23238-.5937-2.71875-.2983-.67897-.1607-.875.625-.875 1.9746,0 2.625-.59013 2.625-2.3125 0-1.90099-1.2335-7.01151-2.3125-9.59375-1.1091-2.65468-.8999-2.60283 1.6562.4375 3.8298,4.55498 7.4928,5.36151 8.8126,1.9375l.5312-1.34375 .9688,1.90625c1.5725,3.04091 4.0205,3.6537 6.4687,1.59375 1.1205-.94282 1.6044-1.11229 1.75-.625 2.0787,6.95775 3.7193,9 7.1563,9 1.5584,0 2.2746-.39971 4.1562-2.28125 1.2506-1.25065 2.4282-2.28125 2.625-2.28125 .4299,0 1.6663-2.55256 1.375-2.84375-.1123-.11239-.9473.66722-1.8438,1.71875-4.6367,5.43917-5.5155,5.89922-8.2187,4.34375-1.8642-1.07264-3.0557-3.18565-4.0937-7.25-.7577-2.96659-1.1291-3.23911-2.0313-1.46875-.8867,1.74013-2.3724,2.40368-4.1563,1.90625-1.1965-.3337-1.8029-.98202-2.7187-2.9375-1.1658-2.48876-2.0313-3.26455-2.0313-1.8125 0,1.17673-1.0945,3.23176-1.875,3.53125-1.9732.75722-6.7183-3.17748-9.3124-7.71875-.8537-1.49444-1.3923-2.19486-1.625-2.15625zm48.3124,6.21875c-.3469.01762-.9793.81956-1.9374,2.46875-2.7715,4.77021-5.3037,4.86218-6,.21875-.3567-2.37791-1.0015-2.66869-1.4376-.65625-.1364.62943-.3998,1.60041-.5937,2.15625-.2498.71615-.1359.66663.375-.1875l.7187-1.21875 .375,1.46875c1.0141,4.04093 3.7863,3.55685 6.9688-1.21875l.7812-1.1875 .5313,1.5625c.428,1.22773.8115,1.53325 1.9375,1.53125 .7786-.0018 2.1036-.44782 2.9375-1 2.2272-1.4751 2.4569-1.24874.9687,1-.7324,1.1066-1.4565,3.00109-1.5937,4.21875-.2134,1.8923-.085,2.33673.9063,3.03125 1.0614.74343 1.0929.89629.375,1.71875-2.424,2.77728-2.1303,5.1875.625,5.1875 .8239,0 1.5109.16657 1.5.375s-1.0658,1.18353-2.3126,2.15625c-2.6452,2.06391-6.2812,7.22259-6.2812,8.90625 0,2.18771 1.5355,2.30915 4.9688.40625 1.7233-.95517 3.2409-1.75 3.375-1.75s.25.47541.25,1.03125 .2775,1.0317.625,1.0625c1.4388.12741 3.2571-.20234 4.875-.875 .9459-.39325 1.8429-.6257 1.9687-.5s-.4899,1.23637-1.375,2.46875c-1.1183,1.55722-1.5843,2.70857-1.4687,3.71875 .1249,1.09408-.1715,1.73922-1.25,2.65625-1.0276.87369-1.3811,1.55685-1.2188,2.40625 .1826.95481-.2381,1.51461-2.2188,2.9375-1.3513.97084-2.4687,2.12271-2.4687,2.53125s1.0101,1.4942 2.25,2.40625 2.2693,1.79364 2.2813,1.96875-2.5669.4886-5.75.6875c-5.2641.3289-7.4294.22197-11.5313-.5625l-1.375-.28125v3.8125c0,2.09008-.2533,3.92199-.5313,4.09375-.3023.18685-.5-.4361-.5-1.5625 .0001-1.03545-.1234-1.75158-.2812-1.59375-.2734.27342.3405,7.99222 1.1875,15.53125l.5-.65625c-.2159-1.87913-.2768-3.12947-.125-3.28125 .1371-.13671.25-.13857.25,0 0,.045.3135,1.35783.5625,2.375l.5625-.75c-.9625-4.39899-1.125-6.45408-1.125-10.78125v-6.1875l1.625.40625c3.4609.80359 19.9581-.0606 19.75-1.03125-.054-.25291-.9642-.73764-2-1.09375s-2.5821-1.35333-3.4375-2.21875l-1.5312-1.59375 1.375-1.09375c.7604-.60996 1.9896-1.59578 2.75-2.1875 1.1258-.87601 1.2791-1.21248.7812-1.8125-.4937-.59476-.3814-.92878.5312-1.75 .6219-.55962 1.5383-1.18882 2.0626-1.375 .9028-.32065.915-.37368.094-1.28125-1.004-1.10944-.7729-1.77017 2.0937-5.71875 1.498-2.06321 1.6265-2.40625.8126-2.40625-.5209,0-1.8472.47541-2.9376,1.03125-2.8195,1.43742-4.6928,1.31576-5.0937-.28125-.1743-.69479-.406-1.25-.5-1.25s-1.5851.83135-3.3125,1.84375c-2.393,1.40249-3.3261,1.7073-3.9375,1.3125-.4413-.28499-.721-.91853-.625-1.4375 .3232-1.73987 4.6251-7.24299 6.9063-8.8125 1.2418-.85436 2.2812-1.61587 2.2812-1.71875s.1143-.56512.2812-1c.2599-.67717.092-.70703-1.2187-.25-1.7403.60662-3.625-.06954-3.625-1.3125 0-.40629.7942-1.5983 1.75-2.65625l1.7187-1.9375-1.4687-.5625c-2.1131-.7976-2.021-3.11451.2813-6.9375 .9727-1.61537 1.75-3.03223 1.75-3.15625-.0001-.44507-2.1532.46654-3.9063,1.65625-2.9771,2.02032-4.1563,1.50404-4.1563-1.84375 0-.92539-.1051-1.38871-.375-1.375zm-41.25,6.5c-.032,8.9e-005-.064.03281-.094.0625-.3389.33887 2.8397,8.01674 5.8125,14.0625 1.4056,2.85883 2.475,5.2754 2.375,5.375s-.7385-.21635-1.4062-.71875c-2.2057-1.65954-3.9688-2.66601-3.9688-2.25 0,.22538 1.443,1.36379 3.2188,2.53125 2.6681,1.75419 3.8013,2.97716 6.5624,7.125 1.8379,2.76052 4.5259,6.34885 5.9688,7.96875l3.9062,4.375 1.3126,1.46875-2.2185-.375c-1.2224-.2006-2.9504-.64595-3.8125-1s-3.1668-.92509-5.125-1.25c-3.5404-.58744-3.5704-.61556-6.5625-4.0625-1.6549-1.9064-3.0965-3.34059-3.2188-3.21875s.7818,1.28003 2.0313,2.59375c4.1891,4.40375 4.1893,4.37069.75,3.96875-1.8724-.21883-3.2371-.67301-3.6875-1.21875-.6784-.82184-.7314-.80372-.4688.0312 .2544.80883-.2277.868-5.875.875-3.3957.004-6.5209.23671-6.9374.5-.4986.3152.4525.38871 2.7812.21875 1.945-.14196 6.4808-.0656 10.0938.15625l6.5624.375-.094,2.03125c-.1191,2.1044.072,1.99014.5937-.375 .2604-1.18032.5541-1.40625 2-1.40625 .9364,0 3.7246.58497 6.1876,1.28125 11.0509,3.12424 11.0753,3.14373 7.9374,5.28125-2.1865,1.48929-15.3437,14.53926-15.3437,15.21875 0,.26125 2.3164-1.92653 5.1563-4.875s5.2416-5.11856 5.3437-4.8125 .3829.43084.625.28125 .3267-.57483.1875-.9375c-.1481-.38591 1.2358-1.8401 3.3438-3.53125 1.9809-1.5893 5.2582-4.22045 7.25-5.84375 4.2997-3.50427 11.6378-7.79938 15.3437-8.96875 1.4591-.4604 2.6563-1.03537 2.6563-1.28125-.0001-1.51263-12.4572,4.92762-17.4688,9.03125-1.1402.93374-2.2332,1.6875-2.4375,1.6875-.5092,0 .069-3.37077 1.5625-9.09375 .6892-2.64025 1.4463-5.70082 1.6875-6.8125 .9132-4.20915 7.3164-18.14724 9.4687-20.59375 .4303-.48806.6374-1.0189.4688-1.1875-.6193-.61931-7.4474,12.29798-9.4688,17.90625-.8191,2.27306-1.2601,2.97133-1.5937,2.5-.3109-.43927-.3882-.17069-.1875.75 .1774.81322-.2912,3.82449-1.1562,7.3125-.8107,3.26793-1.6285,7.02301-1.8126,8.34375-.3169,2.27526-.3896,2.36075-1.4374,1.8125-1.5015-.78564-9.4376-9.1165-9.4376-9.90625 0-.34752-.1819-.625-.4062-.625-1.6391,0-11.3201-16.62969-14.4688-24.875-1.8908-4.9515-2.2754-5.90687-2.5-5.90625zm16.0313,10.34375c-.048.0133-.1053.08971-.1875.21875-.2658.41688-.49,1.4394-.5,2.25-.01,1.95458.2734,1.52908.6562-.96875 .1584-1.03234.1758-1.53989.031-1.5zm13.2187.65625c-.083-.04767-.1562.36421-.1562,1.09375 0,.97269.1228,1.36137.25.875s.127-1.26364 0-1.75c-.032-.12159-.066-.20286-.094-.21875zm-14.1874,3.84375c-.091-.03405-.1563.26015-.1563.78125 0,.69484.1098.97239.25.625s.1402-.90259 0-1.25c-.035-.08685-.063-.1449-.094-.15625zm14.6562.6875c-.065.03525-.1188.32265-.125.84375-.01.83371.08,1.24836.2188.90625s.1594-1.0396.031-1.53125c-.048-.18437-.086-.2399-.125-.21875zm-15.25,1.8125c-.053.05313-.082.20567-.094.5-.022.5327.082.8554.25.6875s.2085-.60397.063-.96875c-.081-.20155-.1656-.27188-.2188-.21875zm15.6562,1c-.053.05313-.082.23692-.094.53125-.022.53268.1135.82416.2813.65625s.1772-.60398.031-.96875c-.081-.20155-.1656-.27188-.2188-.21875zm-6.0937.96875c-.1622-.0777.1436.83131 1,2.59375 .6082,1.25198 1.2068,2.19944 1.3125,2.09375s-.3928-1.2777-1.0938-2.625c-.6861-1.31871-1.0925-2.00207-1.2187-2.0625zm6.625,1.5625c-.053.05313-.113.23692-.125.53125-.022.53268.1134.82415.2813.65625s.1771-.60398.031-.96875c-.081-.20156-.1344-.27188-.1875-.21875zm-4.0937,3.90625c-.1448-.04235-.086.39332.2187,1.1875 .1733.4516.4011.72386.5313.59375s.014-.64905-.2813-1.15625c-.2234-.38415-.3819-.59959-.4687-.625zm-7.9376.75c-.043.0185-.081.06396-.1562.1875-.2543.41688-.6112,1.66957-.7812,2.78125-.3685,2.4086.3846.96138.9062-1.75 .1664-.86477.1601-1.27424.031-1.21875zm-23.1562,5.78125c-.3616.005-.2993.17443.1562.46875 .9709.62736 1.169.62736.7813,0-.1717-.27792-.6066-.47375-.9375-.46875zm-13.8438.46875c-.8805,0-.8071.75759.125,1.53125 1.0113.83923.9237,3.03141-.1562,4.375-.4802.59742-2.0167,1.66219-3.4062,2.375-2.8458,1.45975-5.1496,3.16874-4.7813,3.53125 .1347.13267 2.2641-.24136 4.7187-.8125 4.2428-.98723 4.5486-.99885 6.25-.1875 1.6631.79303 1.7702.9915 1.5,2.65625-.2524,1.55533-.1838,1.745.5626,1.40625 .4729-.21462 2-.48323 3.4062-.59375 3.2596-.25623 4.2785.66862 3.375,3.0625-.3256.86263-.5407,1.616-.4688,1.6875s1.5548-.59758 3.3126-1.46875c2.1386-1.06002 3.9897-1.57465 5.5624-1.59375 2.122-.0259 2.3729.0965 2.5313,1.21875 .1831,1.29829-2.5329,7.09425-3.8125,8.15625-.6084.50486-.4788.70706.8125,1.25 2.3838,1.00234 1.9931,2.84983-1.6875,8-1.4402,2.01528-.632,2.1106 2.2188.28125 1.5152-.97228 3.4861-1.75675 4.8124-1.90625 2.0975-.23641 2.2722-.15141 2.7813,1.1875l.5625,1.4375 .5938-1.1875c.3323-.65577 1.0285-1.44479 1.5312-1.75 1.3644-.82852 2.4575.88406 2.0312,3.15625-.2322,1.23795-.1593,1.62796.25,1.375 .3164-.19554.5938-.90643.5938-1.59375 0-1.58576 1.0971-4.2845 2.2188-5.40625 1.0947-1.09456 3.6204-1.13281 4.0312-.0625 .1687.43961.3125,2.73908.3125,5.125s.1329,4.21096.3125,4.03125 1.7504-4.70695 3.4688-10.0625 3.5007-10.63387 3.9687-11.71875 .7295-2.08312.5937-2.21875c-.3961-.39613-2.2297,4.1964-4.4062,11-1.1113,3.474-2.1572,6.67687-2.3125,7.09375s-.4154-.18664-.5937-1.34375c-.6514-4.22754-3.3228-5.0351-6.125-1.84375-1.3399,1.52606-1.9463,1.86234-3.25,1.75-.971-.0836-1.8578.15251-2.25.625-.574.6915-.7398.69517-1.6876.0312-1.5661-1.09693-2.9445-.93944-6.1562.75l-2.875,1.53125 1.3125-1.53125c.7093-.84297 1.5654-2.48693 1.9063-3.625 .5857-1.95482.5376-2.11774-.6563-3.125l-1.25-1.0625 1.9063-3.40625c2.1433-3.78928 2.4558-6.12482.9374-6.9375-1.511-.80866-2.6348-.63804-6.5312.96875l-3.5938,1.5v-1.46875c0-2.13381-1.6573-3.10828-4.5937-2.71875-2.2712.3013-2.3382.24669-2.625-1.1875-.5185-2.59277-3.2881-3.21731-8.5937-1.96875-1.5982.37605-2.875.5298-2.875.34375s.9677-.81364 2.1874-1.40625c2.7729-1.34715 5.875-4.04113 5.875-5.09375 0-1.47134-1.2122-4.15625-1.875-4.15625zm15.875.53125c-.3614.005-.299.20568.1563.5 .9709.62736 1.1377.62736.75,0-.1718-.27791-.5753-.505-.9063-.5zm1.6563,1c-.026.0261.1545.22427.4687.625 .6601.84171 1.0626,1.10339 1.0626.6875 0-.10493-.3886-.49357-.875-.875-.4008-.31427-.6302-.46358-.6563-.4375zm36.5625,4.5c-.072.0125-.09.067-.062.15625 .1098.3569 1.2113,1.15593 2.4375,1.78125 2.29,1.16787 7.4389,1.63871 6.8125.625-.1718-.27792-1.5266-.5-3-.5-2.0338,0-3.13-.30906-4.5625-1.28125-.7784-.52818-1.409-.81884-1.625-.78125zm-34.2812,3.84375-1.625,1.46875c-.9031.81628-1.6563,1.56925-1.6563,1.65625 0,.39039.429.0308 1.8125-1.5l1.4688-1.625zm18.6562,13.78125c-.065.0353-.088.3539-.094.875-.01.8337.08,1.21712.2188.875s.1593-1.00834.031-1.5c-.048-.18437-.1169-.27115-.1562-.25z" fill="#d4aa00"/>
  <g transform="matrix(.96945 -.24527 .24527 .96945 -186.15 -127.61)" fill="#fff" font-family="Ballpark" font-size="39.843" letter-spacing="0" word-spacing="0">
   <path d="m989.41 396.36c1.398-0.0964 2.6272 0.24106 3.6878 1.0123 1.3015 0.91595 1.9523 2.3019 1.9524 4.1578-3e-5 1.6872-0.928 3.3504-2.7839 4.9894-1.856 1.6149-4.0253 2.6755-6.5079 3.1816 0.1446 3.4709-0.16874 6.0258-0.94003 7.6648-2.2416 4.7242-6.303 7.0864-12.184 7.0864-3.2298 0-5.6161-0.81951-7.1587-2.4585-1.0846-1.157-1.627-2.5549-1.627-4.194 0-1.3257 0.36155-2.4947 1.0846-3.507 0.79541-1.1328 1.868-1.7475 3.2178-1.8439 1.0123-0.0723 1.868 0.21695 2.567 0.86772 0.60258 0.6026 0.90387 1.2895 0.90388 2.0608-1e-5 0.45797-0.12053 0.84362-0.36155 1.157l-1.2293 1.4462c-0.28925 0.36156-0.43387 0.79542-0.43386 1.3016-1e-5 1.639 0.84361 2.4585 2.5308 2.4585 0.21692 0 0.4459-0.0121 0.68694-0.0362 2.3862-0.26513 3.965-1.0485 4.7363-2.3501 0.8677-1.4944 1.3016-4.5073 1.3016-9.0387v-1.0123c-2.9647-0.8677-5.1099-2.326-6.4356-4.3748-0.60259-0.9159-0.90388-1.7354-0.90387-2.4585-1e-5 -0.65077 0.27718-1.0244 0.83156-1.1208 0.14462-0.0241 0.28924-0.0361 0.43386-0.0361 0.53027 2e-5 0.91592 0.24106 1.157 0.7231 0.16872 0.48209 0.33744 0.9762 0.50617 1.4824 0.60257 1.7355 2.1331 3.0129 4.5917 3.8324 0.48205-3.5432 1.7475-6.2789 3.7963-8.2072 1.7836-1.6872 3.977-2.6152 6.5802-2.7839m-3.7601 11.425c2.0246-0.45795 3.6275-1.4341 4.8086-2.9286 0.9159-1.181 1.3739-2.2536 1.3739-3.2178-3e-5 -2.097-0.80748-3.1454-2.4224-3.1455-0.77133 3e-5 -1.5788 0.5062-2.4224 1.5185-1.1329 1.3739-1.627 3.2419-1.4824 5.604 0.0964 1.5185 0.14459 2.2416 0.14462 2.1693"/>
   <path d="m994.59 422.57c0.31334-0.0482 0.67489-0.13257 1.0846-0.25308 0.98823-1.4221 1.8921-3.278 2.7116-5.5679 0.53026-1.4703 0.7954-2.8442 0.79541-4.1217-1e-5 -0.62667-0.0723-1.3016-0.21693-2.0247s-0.21694-1.1449-0.21693-1.2654c-1e-5 -0.91591 0.25308-1.8318 0.75926-2.7478 0.38564-0.65077 0.93998-0.97616 1.6631-0.97618 0.699 2e-5 1.3016 0.37362 1.8078 1.1208 0.3615 0.50619 0.5423 1.2052 0.5423 2.097 0 1.5185-0.4218 3.1816-1.2654 4.9894-1.157 2.555-2.5429 5.0376-4.1578 7.4479 2.1934-1.3498 3.9529-2.9406 5.2786-4.7724 0.2892-0.38565 0.6628-0.57847 1.1208-0.57848 0.4097 1e-5 0.6146 0.16873 0.6146 0.50617 0 0.28925-0.1567 0.63874-0.47 1.0485-0.9882 1.3498-2.6634 2.8804-5.0255 4.5917-1.1811 0.84362-2.3019 1.4221-3.3624 1.7354-1.2052 1.5667-2.3742 2.9044-3.507 4.0132-3.736 3.6396-6.6766 5.7366-8.8218 6.291-0.53026 0.14461-1.0485 0.21692-1.5547 0.21693-1.5667-1e-5 -2.6634-0.68696-3.2901-2.0608-0.19282-0.40977-0.28923-0.83157-0.28924-1.2654 1e-5 -1.9765 1.5788-3.724 4.7363-5.2425 1.7595-0.84362 3.8806-1.5667 6.3633-2.1693 0.33744-1.2293 0.73515-3.0611 1.1931-5.4956 0.14462-0.7472 0.21693-1.3257 0.21693-1.7354 0-0.50616-0.15667-0.96412-0.47001-1.3739-0.0723-0.0964-0.16873-0.14461-0.28924-0.14462-0.26514 1e-5 -1.0123 0.71106-2.2416 2.1331-0.38565 0.45797-0.7472 0.6508-1.0846 0.57848-0.31335-0.0482-0.47002-0.26513-0.47002-0.65079 0-0.36154 0.18078-0.72309 0.54233-1.0846 0.65078-0.65078 1.7354-1.9282 3.2539-3.8324 0.84361-1.0846 1.6752-2.1693 2.4947-3.254 0.67489-0.79539 1.3257-1.1931 1.9524-1.1931 1.1087 2e-5 1.6631 1.0365 1.6631 3.1093-1e-5 1.0364-0.12053 2.3983-0.36155 4.0855-0.40977 2.796-0.9762 5.4112-1.6993 7.8456m-5.1702 2.6755c-4.2181 1.0605-6.773 2.5308-7.6648 4.4109-0.24103 0.53027-0.36155 1.0003-0.36155 1.41 0 1.0123 0.63874 1.5185 1.9162 1.5185 2.4103-0.31335 4.3386-2.4103 5.7848-6.291 0.0723-0.16873 0.18077-0.51822 0.3254-1.0485"/>
   <path d="m1008.324,410.13277c-.5543-.45795-.8315-1.02438-.8315-1.69929 0-.55436.1807-1.19309.5423-1.91621 .6026-1.15694 1.4823-1.73542 2.6393-1.73543 .4339,1e-005 .7954.12053 1.0847.36154 .3133.24106.47.61466.47,1.12081s-.1447,1.06056-.4339,1.66313c.6267.36156 1.5667.33746 2.8201-.0723 1.0605-.36154 1.8077-.54231 2.2416-.54233 .6508,2e-005 1.0364.27721 1.157.83157 .048.19284.072.38566.072.57847 0,.40978-.1206.86774-.3616,1.37389-.241.48208-.4821.9521-.7231,1.41005-.7954,1.68724-1.6872,3.6396-2.6754,5.8571-.2893.79541-.2893,1.27748 0,1.4462 .4097,0 .7713-.20488 1.0846-.61464 .5785-.53027 1.3016-1.22926 2.1693-2.09699 .241-.33743.5664-.50616.9762-.50616 .241,0 .4097.0723.5062.21692 .1928.19284.2892.36156.2892.50617 0,.16873-.2169.51823-.6508,1.0485-2.3139,2.79598-4.6881,4.7845-7.1225,5.96556-.6749.33745-1.3257.50617-1.9524.50617-.9159,0-1.6511-.32539-2.2054-.97618-.5303-.65079-.7593-1.32568-.687-2.02468 .1687-1.5185 1.398-3.7119 3.6878-6.5802 .8918-1.10874 1.3377-1.97646 1.3378-2.60315-.0001-.60257-.5183-.90387-1.5547-.90388-2.6032,3.39858-4.4591,5.64018-5.5679,6.72482-.4097.40976-.8315.47002-1.2654.18078-.1928-.0964-.2892-.25308-.2892-.47002s.096-.40975.2892-.57848c1.0364-1.15695 1.8439-2.09697 2.4224-2.82008 .9882-1.25336 1.8318-2.47058 2.5308-3.65165"/>
   <path d="m1020.1399,423.76318c-1.1569-.0241-1.7354-.66284-1.7354-1.91621 0-1.15695.3977-2.50674 1.1931-4.04935 .7231-1.39799 1.6511-3.00085 2.7839-4.80861-2.6754,3.20575-4.1819,4.80861-4.5193,4.80861-.5062,0-.7593-.25308-.7593-.75926 0-.40975.2772-.90386.8316-1.48235 1.9764-2.36211 4.3386-5.13399 7.0863-8.31564 .2893-.31332.5665-.47.8316-.47001 .4821,1e-005 1.1087.63875 1.8801,1.91621 .4338.69901.6507,1.22928.6508,1.59082-.0001.26515-.084.57849-.2531.94003-.4339,1.01235-1.1088,2.45854-2.0247,4.33859-.1928.33745-.2893.62669-.2892.86772-.0001.33745.1687.45797.5061.36155 .4098-.14461.94-.55437 1.5908-1.22927 1.3498-1.39798 3.0491-3.45881 5.0979-6.1825 .3133-.43384.9882-.8918 2.0247-1.37388 1.0605-.50616 1.88-.73514 2.4585-.68695 .7954.0482 1.1931.33746 1.1931.86772 0,.45798-.2772,1.27749-.8315,2.45854-.9401,1.80776-1.9886,3.89269-3.1455,6.2548-.3616,1.03645-.217,1.55467.4338,1.55467 .3134,0 .699-.21693 1.157-.65079 .5543-.53027 1.1208-1.10875 1.6993-1.73544 .2892-.31334.6266-.47001 1.0123-.47001 .5062,0 .7592.22898.7593.68694-.0001.21694-.217.57849-.6508,1.08465-2.4104,2.82009-4.8087,4.80861-7.1949,5.96556-.5785.28924-1.1208.43386-1.6269.43386-.7472,0-1.3619-.30129-1.8439-.90387-.4098-.53027-.6147-1.15696-.6147-1.88006 0-.36154.06-.69899.1808-1.01234 .458-1.03643 1.1449-2.50673 2.0608-4.4109-4.8929,5.49556-8.2071,8.23128-9.9426,8.20717"/>
   <path d="m1048.8549,411.90436c1.3256-1.27746 2.9526-2.53083 4.8809-3.76011 .8677-.55436 1.7716-.83155 2.7116-.83157 1.181,2e-005 1.7716.53029 1.7716,1.59082 0,.67491-.2652,1.53057-.7954,2.567-1.2775,2.50675-2.2175,4.49527-2.8201,5.96557-.3134.79541-.1928,1.19312.3616,1.19311 .2892,1e-005 .6266-.16872 1.0123-.50617 .3856-.36154 1.0364-1.02438 1.9524-1.98852 .2651-.28923.5905-.43385.9761-.43386 .4339,1e-005 .6508.18078.6508.54232 0,.28925-.1928.6508-.5784,1.08465-2.1453,2.43444-4.2181,4.21808-6.2187,5.35094-.9159.53027-1.856.7954-2.8201.7954-1.6872,0-2.5308-.75925-2.5308-2.27776 0-.43385.084-.91592.2531-1.4462 .2892-.94002.6989-1.79569 1.2292-2.567 .5785-.69899 1.1449-1.39798 1.6993-2.09698 .4821-.62668.7231-1.19311.7231-1.69929 0-.36154-.1446-.54231-.4339-.54232-.4338,1e-005-1.0485.42182-1.8439,1.26542-.9159.96414-2.0487,2.31393-3.3985,4.04936-.3375.62669-.8557,1.61492-1.5547,2.9647-2.5308,4.84476-4.0614,7.6769-4.5917,8.49642-1.4221,2.14518-2.9526,3.47086-4.5916,3.97704-.9642.28923-1.7596.43385-2.3863.43386-.6025-1e-005-1.1087-.14463-1.5185-.43386-.2892-.19284-.4338-.44592-.4338-.75925 0-.48208.3374-1.0003 1.0123-1.55467 1.398-1.15696 3.8445-4.70014 7.3395-10.62955l5.5317-9.36413c-1.1329,1.398-2.784,3.2419-4.9533,5.5317-.4338.36156-.8074.54233-1.1208.54233-.3856,0-.5784-.19282-.5784-.57848 0-.40975.241-.81951.7231-1.22927 .8195-.69899 2.2777-2.38622 4.3747-5.06169 1.7354-2.19339 2.9406-3.7842 3.6155-4.77246 .5062-.74718.9762-1.12078 1.41-1.1208 .2893,2e-005 .6388.18079 1.0485.54232 1.0124.89184 1.5185,1.73546 1.5185,2.53085 0,.45798-.1446,1.03646-.4338,1.73544-.2652.6749-.6629,1.50647-1.1931,2.49469"/>
  </g>
  <path transform="translate(-188.88 -127.85)" d="m1117.2188,135.5c-.253.064-.581.43854-.875,1.25-.4183,1.14095-1.1988,2.97742-2.3438,5.53125-1.3792,3.11335-2.3712,5.13154-3.0312,6.0625-.059.0833-.1357.15545-.1876.25a.29723,.29723 0 0,1 0,.0312 .29723,.29723 0 0,1 -.031.0312 .29723,.29723 0 0,1 0,.0312 .29723,.29723 0 0,1 0,.0312c-.062.0795-.128.13545-.1562.1875-.4083.75121-.8056,1.46563-1.2188,2.125-.3574.56424-.7256.92223-1.1562,1.03125-.1966.0497-.3797.0628-.5626,0s-.3405-.20797-.4374-.375c-.1939-.33407-.2069-.76843-.1563-1.34375a.29723,.29723 0 0,1 0-.0312c.5428-2.57654 1.0628-4.8589 1.5313-6.84375 .2447-1.26386.2718-2.13514.1874-2.46875-.048-.18874-.1108-.25788-.25-.3125s-.3883-.0685-.75,0c-.4795.0797-1.211.4543-2.0937,1.1875-.8674.70594-1.3712,1.34641-1.5313,1.75-1.321,3.14985-2.4928,5.57704-3.4687,7.28125-.4775.83499-.9103,1.3679-1.3437,1.65625-.1877.10898-.4047.17924-.625.0937s-.3224-.2926-.375-.5c-.077-.29791-.042-.64147.062-1.03125v-.0312c.4221-2.0261.7365-3.58513.9063-4.65625a.29723,.29723 0 0,1 0-.0312c.069-.35788.052-.63643 0-.84375-.062-.24551-.3636-.66499-.9375-1.21875-.5206-.51467-.9577-.87814-1.3125-1.09375s-.6151-.27621-.7187-.25c-.116.0293-.2938.22863-.4688.53125-.011.0188-.02.0112-.031.0312-1.8742,3.73993-3.4825,6.989-4.8126,9.75a.29723,.29723 0 0,1 -.031.0312c-.2008.35377-.3128.64493-.375.90625a.29723,.29723 0 0,1 -.031.0937c-.5076.84319-.9753,1.59417-1.3438,2.15625-.01.01-.025.0218-.031.0312-.2321.51188-.6225.84952-1.0938.96875a.29723,.29723 0 0,1 -.062,0 .29723,.29723 0 0,1 -.094,0c-.2728-.0785-.4602-.33891-.5313-.625s-.044-.62388 0-1.0625a.29723,.29723 0 0,1 0-.0312c.4141-2.39357.7984-4.51 1.1563-6.34375 .1194-.49529.2274-1.03255.3437-1.5625 .1051-.52615.116-.94691.031-1.28125-.039-.15292-.099-.2725-.1876-.4375a.29723,.29723 0 0,1 -.031-.0312c-.1006-.20228-.1904-.31429-.3438-.375s-.3836-.069-.6562,0c-.3452.0874-1.0093.42798-1.9375,1.03125-1.1467.7251-2.1381,1.04731-2.9687.8125a.29723,.29723 0 0,1 -.1563-.125 .29723,.29723 0 0,1 -.031-.21875c.1275-.62848.1399-1.16472.031-1.59375-.1074-.42395-.3185-.63103-.5937-.75-.2809-.13454-.5729-.18608-.9376-.0937-1.0293.26044-1.6559.90411-1.9374,2.09375-.1656.75378-.1534,1.39278-.031,1.875 .146.57627.4767.94103 1.0625,1.21875a.29723,.29723 0 0,1 .1562.375c-.3924,1.33194-.9075,2.72041-1.5624,4.1875-.3175.6976-.8314,1.69578-1.375,2.75a.29723,.29723 0 0,1 -.031.0937c-.1114.10893-.2157.24916-.2813.40625-.8517,2.14091-2.1815,4.12981-4,6a.29723,.29723 0 0,1 -.062.0312 .29723,.29723 0 0,1 -.3126,0 .29723,.29723 0 0,1 -.125-.15625 .29723,.29723 0 0,1 0-.1875c.9687-2.71674 1.6953-5.47338 2.1876-8.21875 .3655-1.92874.359-3.58052 0-5-.2096-.82784-.5285-1.40347-.9376-1.75-.6278-.55901-1.2099-.73827-1.7812-.59375-.6001.15184-.9626.52621-1.1562,1.15625v.0312c-.2475.95962-.2719,1.86172-.063,2.6875 0-.009.068.12422.1563.3125s.216.44789.375.78125c.3235.67759.5585,1.33533.7187,1.96875 .325,1.28258.3746,2.73211.2188,4.3125-.2345,2.43813-.6276,4.46873-1.25,6.125a.29723,.29723 0 0,1 -.125.15625c-.3823.22587-.7315.40432-1.0312.53125a.29723,.29723 0 0,1 -.2813-.0312 .29723,.29723 0 0,1 -.125-.15625 .29723,.29723 0 0,1 -.031-.0937c.1033-2.52375.068-5.20342-.2187-8-.1793-1.68559-.4073-3.01588-.6563-4s-.565-1.65283-.9062-2.03125-.6789-.48786-1.125-.375c-.4813.1218-.9681.60638-1.4062,1.5-.528,1.25143-1.0406,2.48802-1.5938,3.75-1.0069,2.222-1.7632,3.74576-2.25,4.5625-.2417.40862-.3125.69182-.25.9375 .037.14671.1127.21268.1562.25s.063.0714.1563.0625a.29723,.29723 0 0,1 .031-.0312c.092-.003.1687-.019.2812-.125s.2233-.28309.3438-.53125c.4242-.84556.8072-1.49172 1.0937-1.9375 .1433-.22289.2573-.39786.375-.53125s.2177-.23356.4063-.28125c.1816-.0458.4032-.003.5624.125 .4471.35449.7654.81759.9063,1.375 .1119.44188.1443.98698.1875,1.75 .1533,2.47437.2764,4.36159.25,5.65625a.29723,.29723 0 0,1 -.1875.25c-2.2462,1.18633-4.1168,2.39398-5.5937,3.625-1.3249,1.10713-2.2547,2.16321-2.7813,3.15625s-.6604,1.93156-.4375,2.8125c.095.3765.2689.71177.5312,1.03125 .8865,1.10565 1.971,1.45687 3.4063,1.09375 .4639-.11737.9189-.30499 1.375-.5625 1.8426-1.00832 4.188-3.72926 6.9063-8.15625 .8184-1.34005 1.6274-2.91641 2.4062-4.71875a.29723,.29723 0 0,1 .031-.0312 .29723,.29723 0 0,1 .094-.0937c.914-.54177 1.8267-1.34755 2.75-2.4375 1.8592-2.22509 3.0806-4.12349 3.6875-5.625a.29723,.29723 0 0,1 .031-.0312c.7889-1.29099 2.0305-3.9154 3.7187-7.84375a.29723,.29723 0 0,1 .031-.0312 .29723,.29723 0 0,1 .1874-.125c.5277-.13351.9435-.19188 1.3126-.0937s.6552.40713.75.78125c.1884.74537-.052,1.74259-.6563,3.0625-1.5073,3.32266-2.1602,5.73827-1.9687,7.125 .088.60502.4623,1.09312 1.0937,1.5625 .6315.44844 1.3053.58237 2.125.375 .5546-.14035 1.0791-.43564 1.625-.90625 2.0279-1.70643 3.7994-4.18686 5.3437-7.4375 .1882-.40153.3055-.6432.3438-.8125a.29723,.29723 0 0,1 .031-.0937c.529-.95323 1.223-2.3401 2.125-4.21875a.30182,.30182 0 0,1 .5626.21875c-.6525,2.02304-1.1438,3.7883-1.5,5.3125-.3865,1.6637-.4537,3.04207-.1876,4.09375 .1423.56244.3785.88312.6563,1.0625s.6428.24359 1.1563.125c.6908-.16461 1.7446-1.07473 3-2.78125s2.7438-4.18154 4.4374-7.4375a.29723,.29723 0 0,1 .4063-.125 .29723,.29723 0 0,1 .125.1875 .29723,.29723 0 0,1 0,.125c-.4176,2.05506-.717,3.63815-.9063,4.75v.0312c-.032.29133-.013.60364.063.90625 .1608.63574.4997,1.09503.9687,1.46875 .5549.42036 1.1392.56872 1.7813.40625 .4269-.10796.8755-.37764 1.3437-.78125 1.9874-1.6714 3.7738-4.13762 5.4063-7.4375 .1636-.32906.2985-.57982.3437-.75a.29723,.29723 0 0,1 .031-.0937c1.4772-2.64473 2.5507-4.76434 3.2812-6.34375a.29723,.29723 0 0,1 .3438-.15625 .29723,.29723 0 0,1 .1874.125 .29723,.29723 0 0,1 .031.25l-3.0625,10.4375c-.9682,3.30695-1.8092,5.97469-2.5625,8s-1.3953,3.4037-1.9687,4.1875c-.4929.66868-.6475,1.16426-.5626,1.5 .056.22238.1486.31503.4063.40625 .407.15642.9051.19719 1.4375.0625 .5635-.14258 1.2443-.46046 2.0938-.96875 1.3841-.84354 2.5366-2.45594 3.375-4.84375 .2955-.87264 1.0785-3.99592 2.3437-9.3125 .3463-1.48017.6066-2.58627.7813-3.28125a.29723,.29723 0 0,1 0-.0625c.8857-2.02004 1.6854-3.60968 2.3437-4.78125 .5764-1.03479 1.0446-1.65765 1.6563-1.8125 .2068-.0523.4265-.038.5937.0937s.258.34798.3125.5625c.1466.57998.047,1.23929-.2812,2-.3617.80394-.7379,1.62146-1.125,2.4375v.0312c-.308.84081-.5145,1.71278-.5626,2.65625a.29723,.29723 0 0,1 0,.0312c-.033.53749 0,.99921.094,1.375 .1723.68161.4859,1.09175.9062,1.3125s1.0073.25832 1.7813.0625c.8803-.22271 1.6484-.69789 2.375-1.40625 1.6287-1.55717 3.2154-3.75912 4.6875-6.625 .2511-.48319.2911-.83797.25-1-.031-.12144-.058-.13818-.094-.15625s-.1434-.0428-.3124,0c-.304.077-.5055.25135-.6563.53125-.6527,1.1615-1.1134,1.94936-1.4063,2.40625-.3137.45478-.6659.77469-1.0624.875-.168.0425-.3382.0473-.5,0s-.2917-.13775-.375-.28125c-.1668-.28699-.1516-.64227-.094-1.09375 .2253-1.58449.6252-3.78149 1.25-6.53125 .2548-1.11272.3022-1.95462.1562-2.53125-.1169-.46217-.3015-.70201-.5624-.84375s-.6593-.19614-1.1876-.0625c-.8557.21653-1.6105.69296-2.2812,1.40625-1.557,1.65328-2.8224,3.23855-3.7812,4.78125a.29723,.29723 0 0,1 -.0939.09375 .29723,.29723 0 0,1 -.4375-.3125c.2703-1.08334.4733-1.99031.5625-2.6875 .1004-.72148.068-1.2944-.031-1.6875-.1639-.64756-.7741-1.2776-1.9376-1.875-.3517-.18104-.6196-.24547-.7812-.25-.042-.001-.088-.0171-.1562,0zm-56.8438,6.09375c-.6095-.0122-1.2454.0437-1.875.25-2.4253.78372-4.2519,2.17067-5.5312,4.1875-1.4712,2.30552-2.0524,5.21552-1.6563,8.71875a.29723,.29723 0 0,1 -.3125.3125c-2.6402-.19559-4.5238-1.09306-5.5938-2.71875-.2754-.43039-.5657-.86244-.8437-1.28125l-.031-.0312c-.2816-.30945-.554-.38616-.9687-.28125-.1437.0364-.2404.0797-.3437.125-.207.0924-.3186.17679-.375.3125s-.07.35008 0,.625c.1581.62534.5962,1.31855 1.375,2.03125 1.7276,1.60506 4.0885,2.45034 7.125,2.5625a.29723,.29723 0 0,1 .2812.25l.25.96875c1.1158,4.41097 1.4798,7.46118.9688,9.25-.4647,1.57346-1.9244,2.76544-4.2188,3.625-.2474.0897-.4801.13504-.6875.1875-.8639.21856-1.6217.18333-2.2187-.15625s-.9739-.96807-1.1876-1.8125c-.1373-.54326-.1281-1.07548.094-1.5625l.8438-1.6875c.1277-.29537.1626-.63721.062-1.03125-.1707-.67466-.574-1.19075-1.25-1.59375-.7721-.42369-1.539-.48434-2.4374-.1875-1.209.39945-2.0343,1.18482-2.5,2.40625-.4305,1.10158-.4996,2.26629-.1876,3.5 .3853,1.52294 1.2217,2.64966 2.5,3.46875 1.8125,1.15637 4.2317,1.40448 7.3126.625 5.6237-1.42282 8.8486-4.62471 9.8437-9.65625 .329-1.69187.016-4.19347-.9687-7.5a.29723,.29723 0 0,1 .031-.25 .29723,.29723 0 0,1 .125-.125c2.2396-1.07889 4.0318-2.58283 5.4062-4.5625 1.3702-2.00447 1.8555-3.75339 1.4688-5.28125-.4374-1.72959-1.352-2.80881-2.75-3.34375a.29723,.29723 0 0,1 -.031,0c-.5772-.23117-1.1146-.33159-1.7188-.34375zm-.9062,1.6875c.6971-.0449 1.3293.14968 1.8124.625s.8292,1.20278 1.0626,2.125c.2606,1.03034.051,2.25232-.5626,3.65625-.8063,1.80058-2.1934,3.15916-4.0937,4.125l-.125-.25-.1875.25-.031-.0625-.031-.0312c-.0004-.00076-.028-.0248-.031-.0312v-.0312c-.01-.0214-.017-.0541-.031-.0937l-.125-.375c-.1165-.34509-.2979-.86835-.5312-1.59375-.7355-2.30264-.7364-4.30976.062-6 .5903-1.23163 1.3473-1.99824 2.2188-2.21875 .2092-.0529.3917-.0808.5938-.0937zm6.0312,26a.29723,.29723 0 0,1 .1562.0625 .29723,.29723 0 0,1 .125.1875 .29723,.29723 0 0,1 .031.0625c-.01.55599-.061.91042-.094,1.125-.4558,4.16788-1.8214,6.80054-4.2188,7.75a.29723,.29723 0 0,1 -.062,0c-.6569.16619-1.1989.17521-1.6563-.0312s-.7669-.63722-.9062-1.1875c-.1199-.45361-.1083-.96208 0-1.5625 .4343-2.19769 2.6073-4.26363 6.4688-6.34375a.29723,.29723 0 0,1 .1562-.0625z"/>
  <path transform="translate(-188.15 -127.61)" d="m1107.1277-108.60686c-1.1838-.0247-2.5956.24457-4.25.8125-6.7847-.76017-13.6229-.6554-20.4375-.65625-9.1155.6795-23.1968-.88686-29.625,3.46875-2.0088,12.55261-1.4314,25.55237-.094,37.96876 .286,1.53897.5086,3.00948.6874,4.46875l5.25-.1875c.018-.29207.044-.58292.063-.875 6.6637.19571 13.3533.15582 20.0312.21875l32.75-1.0625c-.8997-6.45213 2.9989-17.18848 2.5938-23-.9547-7.6343 1.3174-20.98336-6.9688-21.15626z" fill="url(#r)"/>
  <g transform="translate(-2.0649 -190.58)">
   <path d="m553.5 332.17 302.4-2.7367s-11.466 28.286-23.262 36.682c-34.081 24.257-80.32 28.341-122.15 28.788-48.624 0.52006-104.92 0.22903-142.67-30.42-9.1461-7.4252-14.315-32.313-14.315-32.313z" fill="url(#v)"/>
   <path d="m540.61 327.17 330.65-2.7367s-12.537 28.286-25.434 36.682c-37.265 24.257-87.822 28.341-133.56 28.788-53.166 0.52006-114.72 0.22903-156-30.42-10-7.4252-15.652-32.313-15.652-32.313z" filter="url(#h)" opacity=".3"/>
   <path transform="matrix(1.1093 0 0 2.7157 -98.13 -402.07)" d="m897.89 265.18c0 13.894-79.274 25.156-177.06 25.156s-177.06-11.263-177.06-25.156 79.274-25.156 177.06-25.156 177.06 11.263 177.06 25.156z" fill="#808080"/>
   <path transform="matrix(1.1093 0 0 2.7157 -97.446 -404.07)" d="m897.89 265.18c0 13.894-79.274 25.156-177.06 25.156s-177.06-11.263-177.06-25.156 79.274-25.156 177.06-25.156 177.06 11.263 177.06 25.156z" fill="url(#m)"/>
   <path transform="matrix(1.015 0 0 2.3119 -30.183 -301.33)" d="m897.89 265.18c0 13.894-79.274 25.156-177.06 25.156s-177.06-11.263-177.06-25.156 79.274-25.156 177.06-25.156 177.06 11.263 177.06 25.156z" fill="url(#n)"/>
  </g>
  <path d="m1036.4 91.906c-0.5864 0.03687-1.8017 0.76401-2.7187 1.1562-10.791 6.9814-48.66 37.257-61.438 45.875-0.29079 0.19657-0.66229 0.34119-1.0625 0.46875 2.2075-2.3365 4.6314-4.8755 7.2188-7.5 9.8132-9.9539 21.383-21.118 27.844-27.25 0.1239-0.39325 0.2834-0.73005 0.4375-1.0938-0.5447 0.27304-1.1571 0.54936-1.4375 0.71875-0.01 4e-3 -0.024 0.027-0.031 0.0312-6.768 6.6405-18.635 17.656-29.063 26.938-3.5939 3.1989-6.9761 6.1342-9.9375 8.6562-2.672 0.0238-5.7752-0.0736-8.7812 0.1875 0.47324-0.57289 0.9766-1.1521 1.5312-1.7812 3.4422-3.9047 8.3626-8.812 13.594-13.844 10.338-9.9439 21.799-20.221 25.562-23.812 0.0735-0.44634 0.13363-0.82753 0.1875-1.1562-0.59347 0.22556-1.339 0.60092-2.125 0.90625-6.1035 6.0205-17.294 16.264-27.25 24.969-5.0194 4.3888-9.7114 8.372-13.25 11.188-1.7693 1.4078-3.2215 2.5314-4.3438 3.2812-0.56111 0.37493-1.0404 0.64439-1.4688 0.84375-0.21419 0.0997-0.41357 0.19953-0.6875 0.25s-0.77427 0.0937-1.25-0.34375c-0.3379-0.31072-0.49073-0.78436-0.5-1.1562s0.078-0.68883 0.1875-0.96875c0.21898-0.55983 0.54163-1.0769 1-1.6875 0.91675-1.2212 2.3327-2.7139 4.0938-4.4688 3.5222-3.5097 8.4788-7.9907 13.781-12.594 10.468-9.0873 22.034-18.57 25.875-21.969 0.0236-0.17448 0.0664-0.31218 0.0937-0.46875-0.24842 0.13926-0.48468 0.26664-0.75 0.40625-4.4246 3.2825-14.653 12.194-25.031 21.281s-20.95 18.349-26.406 22.562c-1.1097 0.85888-2.5044 1.1044-4.125 1.2812s-3.4823 0.23648-5.375 0.34375c-3.7853 0.21453-7.7132 0.73305-10.094 2.5312-35.783 26.489-82.711 51.187-121.53 68.188-4.799 1.7031-9.5264 3.3497-14.031 4.8438-20.408 2.3104-25.181 3.3705-23.875 7.4688-0.46588 0.26243-0.74099 0.50954-0.875 0.6875-0.14729 0.1956-0.19398 0.30425-0.1875 0.53125 0.013 0.454 0.46903 1.4674 1.375 2.8125 2.4216 3.595 7.3151 6.2925 13.031 7.4688 5.5493 1.9875 12.109 2.7098 18.469 1.7188 12.09-1.8842 27.345-8.0391 45.625-18.438 31.352-17.782 67.452-39.554 101.41-61.125 2.7655 1.4008 5.3861 2.8375 8.125 3.2812 2.9521 0.47826 6.1151 0.0629 9.1562-0.71875 2.2144-0.56911 5.7752-2.2499 8.1875-3.5 5.0809 2.0068 9.4592 5.885 14.812 7.0312 3.602 0.77121 7.4127 0.45891 11.031-0.25 3.0724-0.60186 7.7359-2.5642 10.563-3.8438 0.013-6e-3 0.05-0.0248 0.062-0.0312 6.4033-3.1503 17.85-13.873 36.656-30.656 11.426-10.197 21.101-20.01 21.125-20.5 0.3668-1.2553 1.0246-3.4359 0.75-3.75s-2.2804 0.41356-3.9375 1.0625c-10.456 9.4854-56.836 47.993-59.219 45.469-1.964-2.0804 38.771-36.919 54.188-49.75 0.5075-1.5958 2.0426-3.8034 1.75-4.125s-3.5049 1.0349-4.625 1.625c-16.139 13.915-57.631 46.848-58.875 45.375-3.2712-3.8707 44.077-40.542 52.906-47.969 0.3661-1.7654 0.926-3.2108 0.4062-3.5s-2.5136 0.55453-4.4374 1.1562c-9.3286 8.0925-29.154 23.85-42.531 33.688l0.28125-0.28125c4.7282-4.808 9.0819-9.4864 12.25-13.031 0.9817-1.0985 1.773-2.0535 2.5-2.9062 10.809-8.0845 21.439-15.737 25.219-18.688 0.1276-1.2235 0.8122-2.8011 0.1875-3.0938-0.055-0.02567-0.135-0.03652-0.2188-0.03125zm-37.031 30.844c-4.3729 4.1444-9.1775 8.6226-13.938 12.938-0.93743 0.84978-1.8613 1.675-2.7812 2.5-0.0206-1.8308 7.3665-8.1446 16.719-15.438zm-74.812 30.75c1.1717 0.0374 2.348 0.22117 3.4688 0.5 0.5811 0.14458 1.1352 0.33657 1.6875 0.53125-12.88 7.4547-26.489 14.621-40.344 21.406 9.8787-7.0165 19.716-14.123 29.281-21.156a1.1953 1.1953 0 0 1 0.1875 -0.0937c1.8068-0.91436 3.7659-1.2498 5.7188-1.1875z" fill="url(#t)" filter="url(#z)"/>
  <path d="m990.04 97.695c0.895-0.4501 2.1244-1.3044 2.5185-1.1419 0.5617 0.23159 0.032 1.682-0.018 2.7804-7.5107 6.688-47.471 38.888-44.772 41.369 1.3876 1.276 34.776-28.475 46.834-40.394 1.6539-0.62873 3.3506-1.4951 3.8205-1.2617s0.076 1.5667-0.1546 3.1604c-7.3538 7.0511-46.969 42.044-43.909 45.345 1.1642 1.2555 35.838-30.124 49.263-43.315 0.9509-0.58016 3.6943-1.9484 3.9668-1.6752s-0.9585 2.3087-1.3222 3.7576c-12.847 12.189-46.77 45.236-44.945 47 2.2142 2.1402 40.888-34.453 49.562-43.419 1.4179-0.6582 3.121-1.3841 3.3773-1.1167s-0.2087 2.2539-0.4662 3.392c0 0.43889-7.9559 9.6568-17.443 19.305-15.615 15.879-25.11 25.977-30.557 29.094-0.011 6e-3 -0.02 0.0251-0.031 0.0312-2.4099 1.2769-6.4031 3.254-9.0626 3.9375-3.1322 0.80505-6.4636 1.2672-9.6562 0.75-4.7449-0.7687-8.7625-4.0124-13.312-5.5625-3.2573-3.0308-10.236-5.5847-15.344-3-30.572 22.479-63.906 45.67-92.594 64.438-15.478 10.153-28.511 16.368-39 18.625-10.786 2.3211-22.635-1.132-27.219-7.9375-3.7598-5.5823-1.9283-6.5422 19.219-10.156 41.436-16.583 98.486-45.13 140.19-76 5.5446-4.1882 16.589-1.7996 19.594-4.125 10.751-8.3017 42.37-37.132 51.464-43.879z" fill="url(#u)"/>
  <g transform="translate(226.41 36.767)">
   <path d="m591.38 93.68c0 16.165-43.133 29.269-123.95 29.269-68.454 0-123.95-26.166-123.95-42.331 0-29.227 54.504-34.106 122.96-34.106s124.94 31.004 124.94 47.168z" fill="#cc6405"/>
   <path d="m466.44 44.5c-44.108 0-82.387 2.0525-104.06 11.312l-13.562-1.1562s-4.867 9.7146-5.625 15c-0.29564 2.0614 0.0264 5.247 0.34375 7.625 4e-3 0.03281-4e-3 0.06129 0 0.09375-0.0229 0.41464-0.0625 0.82513-0.0625 1.25 0 16.165 55.515 42.312 123.97 42.312 80.814 0 123.94-13.085 123.94-29.25 0-0.82745-0.17872-1.6947-0.46875-2.5938 0.51269-0.9372 2.2613-4.2587 2.0938-6.2812-0.24472-2.9546-4.25-7.8125-4.25-7.8125l-11.969-1c-21.089-14.547-62.819-29.5-110.34-29.5z" fill="url(#g)"/>
   <path d="m589.44 78.199c0 16.165-42.207 29.269-121.29 29.269-66.984 0-121.29-26.166-121.29-42.331 0-29.227 53.334-34.106 120.32-34.106s122.25 31.004 122.25 47.168z" fill="url(#q)"/>
   <path d="m467.19 30.594c-33.503 0-63.599 1.205-85.375 6.0938-10.888 2.4444-19.686 5.8094-25.812 10.438s-9.5625 10.56-9.5625 18c0 4.2866 3.5015 9.0176 9.6875 13.781s15.091 9.5829 26.094 13.875c22.005 8.5843 52.388 15.125 85.938 15.125 39.564 0 69.91-3.2818 90.406-8.5938 10.248-2.656 18.022-5.7973 23.281-9.3438s8.0312-7.5493 8.0312-11.781c0-4.291-3.5709-9.2831-9.8438-14.5s-15.282-10.633-26.406-15.531c-22.248-9.7969-52.878-17.562-86.438-17.562zm0 0.875c33.425 0 63.93 7.7539 86.062 17.5 11.066 4.8731 20.035 10.232 26.219 15.375s9.5312 10.052 9.5312 13.844c0 3.8503-2.4989 7.5744-7.625 11.031s-12.843 6.6094-23.031 9.25c-20.377 5.2812-50.672 8.5625-90.188 8.5625-33.435 0-63.702-6.5226-85.594-15.062-10.946-4.2699-19.817-9.0612-25.906-13.75s-9.3438-9.2981-9.3438-13.094c0-7.1733 3.221-12.774 9.1875-17.281s14.681-7.8524 25.5-10.281c21.637-4.8577 51.706-6.0938 85.188-6.0938z" fill="#e0a269"/>
  </g>
  <g transform="matrix(.86834 -.01045 .01031 .97379 297.07 19.544)">
   <path d="m591.38 93.68c0 16.165-43.133 29.269-123.95 29.269-68.454 0-123.95-26.166-123.95-42.331 0-29.227 54.504-34.106 122.96-34.106s124.94 31.004 124.94 47.168z" fill="#cc6405"/>
   <path d="m466.44 44.5c-44.108 0-82.387 2.0525-104.06 11.312l-13.562-1.1562s-4.867 9.7146-5.625 15c-0.29564 2.0614 0.0264 5.247 0.34375 7.625 4e-3 0.03281-4e-3 0.06129 0 0.09375-0.0229 0.41464-0.0625 0.82513-0.0625 1.25 0 16.165 55.515 42.312 123.97 42.312 80.814 0 123.94-13.085 123.94-29.25 0-0.82745-0.17872-1.6947-0.46875-2.5938 0.51269-0.9372 2.2613-4.2587 2.0938-6.2812-0.24472-2.9546-4.25-7.8125-4.25-7.8125l-11.969-1c-21.089-14.547-62.819-29.5-110.34-29.5z" fill="url(#g)"/>
   <path d="m589.44 78.199c0 16.165-42.207 29.269-121.29 29.269-66.984 0-121.29-26.166-121.29-42.331 0-29.227 53.334-34.106 120.32-34.106s122.25 31.004 122.25 47.168z" fill="url(#p)"/>
   <path d="m467.19 30.594c-33.503 0-63.599 1.205-85.375 6.0938-10.888 2.4444-19.686 5.8094-25.812 10.438s-9.5625 10.56-9.5625 18c0 4.2866 3.5015 9.0176 9.6875 13.781s15.091 9.5829 26.094 13.875c22.005 8.5843 52.388 15.125 85.938 15.125 39.564 0 69.91-3.2818 90.406-8.5938 10.248-2.656 18.022-5.7973 23.281-9.3438s8.0312-7.5493 8.0312-11.781c0-4.291-3.5709-9.2831-9.8438-14.5s-15.282-10.633-26.406-15.531c-22.248-9.7969-52.878-17.562-86.438-17.562zm0 0.875c33.425 0 63.93 7.7539 86.062 17.5 11.066 4.8731 20.035 10.232 26.219 15.375s9.5312 10.052 9.5312 13.844c0 3.8503-2.4989 7.5744-7.625 11.031s-12.843 6.6094-23.031 9.25c-20.377 5.2812-50.672 8.5625-90.188 8.5625-33.435 0-63.702-6.5226-85.594-15.062-10.946-4.2699-19.817-9.0612-25.906-13.75s-9.3438-9.2981-9.3438-13.094c0-7.1733 3.221-12.774 9.1875-17.281s14.681-7.8524 25.5-10.281c21.637-4.8577 51.706-6.0938 85.188-6.0938z" fill="#e0a269"/>
   <g transform="matrix(.89139 -.05524 .06817 .9981 314.99 30.067)">
    <path d="m14.5 27.188a1.7226 1.7226 0 0 0 -0.25 0.03125s-2.6919 0.66228-5.9062 1.6875-6.9156 2.3735-9.375 4.0625c-3.2428 2.227-6.3673 5.2169-7.6875 9.0625-1.251 3.6439-1.8336 8.4659 0.96875 12.062 6.7086 8.6099 19.955 9.7062 30.031 12.031 27.474 6.3398 56.239 5.7646 84.219 6.9375 40.553 1.6999 82.096 6.9969 122.41 0.1875 16.887-2.8526 34.066-7.9558 48.188-17 3.7937-2.4296 7.5743-5.6494 9.3438-9.9375 1.0775-2.6111 0.9813-5.9263 0.78125-8.75s-0.625-5.125-0.625-5.125a1.7226 1.7226 0 0 0 -0.75 -1.125l-3.2812-2.125a1.7226 1.7226 0 0 0 -0.9375 -0.28125l-266.97-1.7188a1.7226 1.7226 0 0 0 -0.15625 0z" fill="#cd670a"/>
    <path d="m14.662 28.91s-10.512 2.5679-14.722 5.4591c-3.0593 2.101-5.901 4.9157-7.0317 8.2091-1.1462 3.3388-1.5571 7.5921 0.67955 10.463 6.042 7.7544 18.825 9.041 29.073 11.406 27.194 6.2752 55.845 5.7194 83.896 6.8953 40.652 1.7041 82.111 6.9736 122.08 0.2213 16.742-2.8282 33.693-7.8986 47.528-16.759 3.6361-2.3287 7.1222-5.3998 8.6684-9.1471 1.6674-4.0408 0.0551-12.923 0.0551-12.923l-3.2576-2.1005z" fill="url(#f)"/>
    <path d="m27.016 25.93s-17.488 2.5329-25.049 6.1689c-2.3671 1.1382-5.6427 2.4165-5.9811 4.7155-0.41944 2.8494 2.7561 5.565 5.4822 7.2727 10.721 6.7161 25.36 7.1204 38.466 9.0021 32.063 4.603 64.815 4.4577 97.289 5.4547 24.224 0.74373 48.503 1.3386 72.708 0.39119 11.935-0.46714 24.054-0.61676 35.66-2.9919 11.969-2.4495 25.135-4.5579 34.36-11.473 3.2247-2.4172 6.1856-9.6296 6.1856-9.6296z" fill="url(#e)"/>
    <path d="m26.938 25.375s-4.3846 0.62752-9.7188 1.7188-11.614 2.6313-15.5 4.5c-1.1665 0.56092-2.5967 1.1815-3.8125 1.9688s-2.264 1.7654-2.4688 3.1562c-0.24291 1.6502 0.54783 3.2164 1.6875 4.5312s2.6694 2.4398 4.0625 3.3125c10.906 6.8318 25.596 7.1875 38.656 9.0625 32.117 4.6108 64.914 4.4722 97.375 5.4688 24.226 0.7438 48.491 1.3546 72.719 0.40625 11.925-0.46674 24.074-0.61055 35.75-3 11.952-2.446 25.209-4.5589 34.594-11.594 1.7595-1.3189 3.3099-3.7724 4.4688-5.9062s1.9062-3.9375 1.9062-3.9375l0.3125-0.75-0.8125-0.03125-259.12-8.9062h-0.09375zm0.0625 1.125 258.25 8.875c-0.21986 0.51464-0.59332 1.4242-1.5 3.0938-1.1278 2.0767-2.6598 4.4642-4.125 5.5625-9.065 6.795-22.17 8.922-34.156 11.375-11.536 2.3608-23.618 2.5012-35.562 2.9688-24.181 0.94645-48.434 0.36865-72.656-0.375-32.487-0.99736-65.242-0.87353-97.25-5.4688-13.154-1.8884-27.714-2.3058-38.25-8.9062-1.3329-0.83503-2.7565-1.9428-3.7812-3.125s-1.614-2.3945-1.4375-3.5938c0.13369-0.90821 0.90158-1.695 2-2.4062s2.4869-1.329 3.6875-1.9062c3.6752-1.7672 9.9188-3.322 15.219-4.4062 5.2471-1.0734 9.4768-1.6751 9.5625-1.6875z" fill="#d38d5f"/>
   </g>
   <g transform="matrix(.72569 -.02757 .01048 .94955 364.39 11.26)">
    <path d="m14.5 27.188a1.7226 1.7226 0 0 0 -0.25 0.03125s-2.6919 0.66228-5.9062 1.6875-6.9156 2.3735-9.375 4.0625c-3.2428 2.227-6.3673 5.2169-7.6875 9.0625-1.251 3.6439-1.8336 8.4659 0.96875 12.062 6.7086 8.6099 19.955 9.7062 30.031 12.031 27.474 6.3398 56.239 5.7646 84.219 6.9375 40.553 1.6999 82.096 6.9969 122.41 0.1875 16.887-2.8526 34.066-7.9558 48.188-17 3.7937-2.4296 7.5743-5.6494 9.3438-9.9375 1.0775-2.6111 0.9813-5.9263 0.78125-8.75s-0.625-5.125-0.625-5.125a1.7226 1.7226 0 0 0 -0.75 -1.125l-3.2812-2.125a1.7226 1.7226 0 0 0 -0.9375 -0.28125l-266.97-1.7188a1.7226 1.7226 0 0 0 -0.15625 0z" fill="#cd670a"/>
    <path d="m14.662 28.91s-10.512 2.5679-14.722 5.4591c-3.0593 2.101-5.901 4.9157-7.0317 8.2091-1.1462 3.3388-1.5571 7.5921 0.67955 10.463 6.042 7.7544 18.825 9.041 29.073 11.406 27.194 6.2752 55.845 5.7194 83.896 6.8953 40.652 1.7041 82.111 6.9736 122.08 0.2213 16.742-2.8282 33.693-7.8986 47.528-16.759 3.6361-2.3287 7.1222-5.3998 8.6684-9.1471 1.6674-4.0408 0.0551-12.923 0.0551-12.923l-3.2576-2.1005z" fill="url(#f)"/>
    <path d="m27.016 25.93s-17.488 2.5329-25.049 6.1689c-2.3671 1.1382-5.6427 2.4165-5.9811 4.7155-0.41944 2.8494 2.7561 5.565 5.4822 7.2727 10.721 6.7161 25.36 7.1204 38.466 9.0021 32.063 4.603 64.815 4.4577 97.289 5.4547 24.224 0.74373 48.503 1.3386 72.708 0.39119 11.935-0.46714 24.054-0.61676 35.66-2.9919 11.969-2.4495 25.135-4.5579 34.36-11.473 3.2247-2.4172 6.1856-9.6296 6.1856-9.6296z" fill="url(#e)"/>
    <path d="m26.938 25.375s-4.3846 0.62752-9.7188 1.7188-11.614 2.6313-15.5 4.5c-1.1665 0.56092-2.5967 1.1815-3.8125 1.9688s-2.264 1.7654-2.4688 3.1562c-0.24291 1.6502 0.54783 3.2164 1.6875 4.5312s2.6694 2.4398 4.0625 3.3125c10.906 6.8318 25.596 7.1875 38.656 9.0625 32.117 4.6108 64.914 4.4722 97.375 5.4688 24.226 0.7438 48.491 1.3546 72.719 0.40625 11.925-0.46674 24.074-0.61055 35.75-3 11.952-2.446 25.209-4.5589 34.594-11.594 1.7595-1.3189 3.3099-3.7724 4.4688-5.9062s1.9062-3.9375 1.9062-3.9375l0.3125-0.75-0.8125-0.03125-259.12-8.9062h-0.09375zm0.0625 1.125 258.25 8.875c-0.21986 0.51464-0.59332 1.4242-1.5 3.0938-1.1278 2.0767-2.6598 4.4642-4.125 5.5625-9.065 6.795-22.17 8.922-34.156 11.375-11.536 2.3608-23.618 2.5012-35.562 2.9688-24.181 0.94645-48.434 0.36865-72.656-0.375-32.487-0.99736-65.242-0.87353-97.25-5.4688-13.154-1.8884-27.714-2.3058-38.25-8.9062-1.3329-0.83503-2.7565-1.9428-3.7812-3.125s-1.614-2.3945-1.4375-3.5938c0.13369-0.90821 0.90158-1.695 2-2.4062s2.4869-1.329 3.6875-1.9062c3.6752-1.7672 9.9188-3.322 15.219-4.4062 5.2471-1.0734 9.4768-1.6751 9.5625-1.6875z" fill="#d38d5f"/>
   </g>
  </g>
  <g transform="matrix(.99777 -.06675 .06675 .99777 265.31 149.71)">
   <path d="m538.48-73.954c1.4396 10.805-33.628 22.943-101.52 29.274-57.505 5.3625-106.45-7.7806-107.89-18.586-2.6028-19.536 42.749-27.068 100.25-32.43s107.71 10.937 109.15 21.742z" fill="#cc6405"/>
   <path d="m429.15-97.041c-37.054 3.4553-69.027 7.8259-86.411 15.714l-11.496 0.28957s-3.2234 6.8748-3.3895 10.467c-0.0648 1.4011 0.48944 3.5052 0.96782 5.0699 7e-3 0.02155 2e-3 0.0413 9e-3 0.06269 0.0177 0.27896 0.0209 0.55644 0.0588 0.84044 1.4396 10.805 50.404 23.934 107.91 18.572 67.888-6.3307 102.95-18.456 101.51-29.261-0.0742-0.55305-0.30106-1.1188-0.62478-1.697 0.34723-0.66662 1.5203-3.0238 1.1995-4.3626-0.4687-1.9558-4.266-4.8892-4.266-4.8892l-10.144 0.26915c-19.012-8.0716-55.399-14.798-95.323-11.075z" fill="url(#d)"/>
   <path d="m535.48-84.15c1.4396 10.805-32.85 22.87-99.281 29.065-56.271 5.2474-104.22-7.9891-105.66-18.794-2.6028-19.536 41.766-26.976 98.037-32.223s105.46 11.147 106.9 21.952z" fill="url(#c)"/>
   <path d="m428.54-106.39c-28.144 2.6245-53.32 5.7876-71.177 10.761-8.9288 2.4868-16.02 5.4253-20.755 8.9988s-7.0926 7.8078-6.43 12.781c0.38176 2.8654 3.7445 5.7534 9.3654 8.453s13.531 5.2233 23.156 7.2304c19.25 4.0142 45.356 6.0062 73.54 3.378 33.236-3.0993 58.436-7.6702 75.181-12.826 8.3725-2.5782 14.624-5.2869 18.726-8.0695s6.0744-5.6753 5.6975-8.5041c-0.38211-2.8683-3.8265-5.9254-9.5607-8.9212s-13.785-5.9102-23.566-8.313c-19.562-4.8057-45.984-7.5971-74.177-4.9682zm0.0779 0.58488c28.079-2.6184 54.395 0.17491 73.856 4.9558 9.7304 2.3904 17.742 5.2702 23.395 8.2233s8.9021 5.9728 9.2397 8.507c0.3429 2.5737-1.4247 5.2588-5.423 7.971s-10.2 5.424-18.524 7.9872c-16.648 5.1264-41.805 9.693-75 12.788-28.088 2.6192-54.095 0.63027-73.245-3.3632-9.5754-1.9967-17.455-4.5044-22.987-7.1616s-8.6774-5.4832-9.0154-8.0203c-0.63888-4.7949 1.5682-8.7912 6.179-12.271s11.634-6.3989 20.506-8.8699c17.744-4.9421 42.893-8.1237 71.02-10.747z" fill="#e0a269"/>
  </g>
  <g transform="matrix(.82101 .03044 -.025 .99954 356.77 88.367)">
   <path d="m538.48-73.954c1.4396 10.805-33.628 22.943-101.52 29.274-57.505 5.3625-106.45-7.7806-107.89-18.586-2.6028-19.536 42.749-27.068 100.25-32.43s107.71 10.937 109.15 21.742z" fill="#cc6405"/>
   <path d="m429.15-97.041c-37.054 3.4553-69.027 7.8259-86.411 15.714l-11.496 0.28957s-3.2234 6.8748-3.3895 10.467c-0.0648 1.4011 0.48944 3.5052 0.96782 5.0699 7e-3 0.02155 2e-3 0.0413 9e-3 0.06269 0.0177 0.27896 0.0209 0.55644 0.0588 0.84044 1.4396 10.805 50.404 23.934 107.91 18.572 67.888-6.3307 102.95-18.456 101.51-29.261-0.0742-0.55305-0.30106-1.1188-0.62478-1.697 0.34723-0.66662 1.5203-3.0238 1.1995-4.3626-0.4687-1.9558-4.266-4.8892-4.266-4.8892l-10.144 0.26915c-19.012-8.0716-55.399-14.798-95.323-11.075z" fill="url(#d)"/>
   <path d="m535.48-84.15c1.4396 10.805-32.85 22.87-99.281 29.065-56.271 5.2474-104.22-7.9891-105.66-18.794-2.6028-19.536 41.766-26.976 98.037-32.223s105.46 11.147 106.9 21.952z" fill="url(#c)"/>
   <path d="m428.54-106.39c-28.144 2.6245-53.32 5.7876-71.177 10.761-8.9288 2.4868-16.02 5.4253-20.755 8.9988s-7.0926 7.8078-6.43 12.781c0.38176 2.8654 3.7445 5.7534 9.3654 8.453s13.531 5.2233 23.156 7.2304c19.25 4.0142 45.356 6.0062 73.54 3.378 33.236-3.0993 58.436-7.6702 75.181-12.826 8.3725-2.5782 14.624-5.2869 18.726-8.0695s6.0744-5.6753 5.6975-8.5041c-0.38211-2.8683-3.8265-5.9254-9.5607-8.9212s-13.785-5.9102-23.566-8.313c-19.562-4.8057-45.984-7.5971-74.177-4.9682zm0.0779 0.58488c28.079-2.6184 54.395 0.17491 73.856 4.9558 9.7304 2.3904 17.742 5.2702 23.395 8.2233s8.9021 5.9728 9.2397 8.507c0.3429 2.5737-1.4247 5.2588-5.423 7.971s-10.2 5.424-18.524 7.9872c-16.648 5.1264-41.805 9.693-75 12.788-28.088 2.6192-54.095 0.63027-73.245-3.3632-9.5754-1.9967-17.455-4.5044-22.987-7.1616s-8.6774-5.4832-9.0154-8.0203c-0.63888-4.7949 1.5682-8.7912 6.179-12.271s11.634-6.3989 20.506-8.8699c17.744-4.9421 42.893-8.1237 71.02-10.747z" fill="#e0a269"/>
  </g>
  <path d="m635.96 26.724c3.0694-0.61415 3.6385-6.8012 6.4112-8.5796 1.7082-1.0957 3.8516-1.5404 5.6988-0.90313 1.8789 0.64817 2.8415 3.5403 4.6303 4.5156 2.098 1.1439 4.5559 2.0772 6.7674 1.3547 1.3108-0.42828 1.8722-2.8648 3.2056-3.1609 4.9187-1.0923 9.9187 2.7133 14.247 5.8703 2.6237 1.9137 4.1701 5.7057 6.7674 7.6765 2.3848 1.8096 5.4916 1.7197 7.8359 3.6125 1.8411 1.4865 3.8583 3.2818 4.6303 5.8703 0.67315 2.2571 0.67948 5.2004-0.35618 7.225-1.5315 2.9938-6.4501 1.6462-7.4797 4.9672-0.78295 2.5255 2.0589 4.9648 2.1371 7.6765 0.0494 1.715-0.0174 3.8858-1.0685 4.9672-3.14 3.2301-8.3829-1.0851-12.11 0.90313-1.6268 0.86784-3.5732 2.321-3.9179 4.5156-0.43568 2.7736 2.0732 5.0252 2.8494 7.6765 0.77177 2.6362 1.341 5.372 1.7809 8.1281 0.73595 4.6114 1.4174 9.2936 1.4247 13.998 4e-3 2.4271-0.87213 4.8064-0.71236 7.225 0.20688 3.132 2.8913 6.0372 2.1371 9.0312-0.82372 3.2697-4.9721 3.4145-6.4112 6.3218-0.90357 1.8254-0.36407 4.3605-1.0685 6.3219-0.73803 2.0548-2.1577 3.5931-3.2056 5.4187-1.4537 2.5325-2.7981 5.1648-4.2741 7.6765-2.5258 4.2981-6.7708 7.4567-7.8359 12.644-0.57536 2.8019-0.66768 6.6988 1.0685 8.5797 2.1663 2.3468 5.706-0.25609 8.5483 0 2.5122 0.22635 4.9817 0.94759 7.4797 1.3547 4.1483 0.67605 8.2854 1.6604 12.466 1.8062 2.0211 0.0706 4.5827 1.3051 6.055-0.45156 2.177-2.5974 1.2219-7.504 1.0685-11.289-0.19358-4.7773-2.6812-9.2207-2.4932-13.998 0.16831-4.2786 3.548-7.9303 3.2056-12.192-0.26417-3.2876-2.7407-5.6313-3.918-8.5797-0.93646-2.3453-2.0687-4.6519-2.4932-7.225-0.85081-5.1566 0.82254-10.641 0-15.805-0.4845-3.0416-3.0229-5.4844-2.8494-8.5796 0.14723-2.6264 1.5531-5.1786 3.2056-6.7734 1.7648-1.7032 5.069-0.01913 6.4112-2.2578 2.0835-3.4752-0.17151-8.7356 0-13.095 0.11888-3.0217-1.1899-7.2045 0.71237-9.0312 1.6338-1.5688 4.0067 1.446 6.055 1.3547 1.9569-0.08727 5.1493 0.57642 5.6988-1.8062 0.82504-3.5769-4.8564-4.7253-6.055-8.1281-1.1659-3.31-1.8283-7.5-0.71235-10.837 0.65861-1.9696 2.3288-3.3448 3.918-4.064 3.3545-1.5181 7.1478-0.52654 10.685 0 2.5454 0.37889 4.9186 2.3812 7.4797 2.2578 3.1142-0.15003 6.4569-6.0583 8.9044-3.6125 2.5245 2.5227-1.7861 8.351-0.71236 12.192 0.92585 3.3121 5.2457 4.2099 5.6988 7.6765 0.46912 3.5885-4.0737 6.3552-3.5618 9.9343 0.50928 3.5607 3.4179 6.2917 6.055 7.6765 1.5356 0.80642 3.4508-0.80642 4.9865 0 1.241 0.65168 2.1637 2.1481 2.8494 3.6125 1.0739 2.2935 0.0268 6.2038 1.7809 7.6765 2.5908 2.1752 6.1542-1.4537 9.2606-1.3547 1.4439 0.04601 3.7-0.77713 4.2741 0.90312 0.68069 1.9919-2.5171 3.2892-2.8494 5.4187-0.35244 2.2587-0.0232 4.9334 1.0685 6.7734 2.1706 3.6584 6.3016 4.5075 9.6168 6.3218 2.3097 1.2641 5.5641 0.65819 7.1236 3.1609 2.1457 3.4435-0.9563 9.536 1.0685 13.095 2.3624 4.1525 7.7194 3.4107 11.042 6.3218 3.0386 2.6628 8.0402 5.2584 7.8359 9.9343-0.12613 2.887-4.4792 2.7426-5.3427 5.4187-1.1319 3.5078-1.0755 8.6479 1.0685 11.289 2.8216 3.4757 7.9365 2.5606 11.754 1.3547 3.5787-1.1306 5.9137-5.7122 9.2606-7.6765 3.034-1.7807 6.8113-1.3069 9.6168-3.6125 1.837-1.5097 3.6385-3.666 4.2741-6.3218 0.86799-3.6267 1.0344-8.5953-1.0685-11.289-3.8744-4.9627-11.301-0.02-16.384-2.7094-1.2492-0.661-2.3122-1.8715-3.2056-3.1609-1.5453-2.2304-3.5175-4.7083-3.5618-7.6765-0.0331-2.222 1.4942-4.0441 2.4932-5.8703 1.4385-2.6296 4.584-4.0658 4.9865-7.225 0.39032-3.0633-1.0735-6.4443-2.8494-8.5796-2.2889-2.7521-5.8472-3.078-8.9044-4.064-3.0268-0.97616-6.14-1.6452-9.2606-1.8062-1.665-0.08588-3.6373 1.6915-4.9865 0.45156-1.189-1.0928-1.1858-3.5628-1.0685-5.4187 0.21666-3.428 2.0643-6.363 3.2056-9.4828 0.7819-2.1373 2.7631-3.9908 2.4932-6.3218-0.40249-3.4767-3.4751-5.579-5.6988-7.6765-2.1299-2.0091-4.7096-3.1149-7.1236-4.5156-1.4034-0.81433-4.0965-0.31404-4.2741-2.2578-0.3034-3.3199 6.0149-2.5662 6.4112-5.8703 0.35696-2.9762-4.2614-4.2146-4.2741-7.225-0.0118-2.7998 3.1695-4.1393 3.918-6.7734 0.68521-2.4116 1.21-5.353 0.35618-7.6765-2.9381-7.9954-10.449-12.04-16.74-15.805-16.588-9.9254-35.089-16.142-53.427-16.708-16.69-0.51457-32.992 6.8794-49.152 12.192-9.6674 3.1782-20.925 3.4807-28.494 11.741-2.2133 2.4152-4.7918 6.4017-3.918 9.9343 0.89033 3.5992 4.897 6.0068 7.8359 5.4187z" fill="#feef72" opacity=".6"/>
  <path d="m705.38-8.5141c-22.298 2.1413-42.591 12.732-64.188 18.031-4.5763 2.0239-11.31 7.4562-7.7812 12.906 3.5623 1.1212 2.1128-4.0567 4.25-5.4688 4.5764-5.8989 14.817-4.5688 17.938 2.0312 3.4858 1.318 4.4535-3.7087 8.0312-2.9375 9.8424-0.90385 16.363 7.7242 22.469 13.938 4.1094 2.6407 9.6466 3.6734 12.281 8.125 4.1543-8.0483 14.919-7.3289 22.125-4.125 4.4215 1.6337 6.7703-4.3011 11.312-2.9062 5.4634 0.38892 6.4734 6.8158 4.5625 10.938-1.3089 3.022-0.43754 6.5724 2.75 7.5938 4.6848 4.7481 0.57206 11.41-0.90625 16.344 2.2383 5.1388 10.241 0.95588 12.156 6.75 2.1244 2.4705 0.59044 9.236 5.0625 6.5938 4.4683-1.9318 12.079-0.74516 11.594 5.4688-0.578 3.4791-5.5339 7.6066-1.0312 10.406 5.2677 4.1587 15.793 3.4235 16.75 11.781 0.20956 3.7391-2.2636 10.976 3.5 11.469 7.7004 2.6654 17.5 9.3988 15.125 18.719-2.3368 3.1842-8.0589 5.9451-5.0938 10.625 3.3813 4.7772 9.9322 0.64219 12.562-2.9375 3.5056-3.8013 8.4855-5.2751 13.094-6.5938 3.6757-2.6416 5.4699-10.607 0.5625-12.5-6.5224 0.29892-14.8 0.85681-18.375-5.8438-5.4706-6.2654-4.1673-16.779 2.8438-21.406 3.3146-5.0332-2.8517-9.9115-7.5938-10.281-5.134-2.4312-11.259 0.90058-16-2.0312-5.8647-5.7651-1.1774-14.651 1.8125-20.656 3.0772-5.961-4.3518-9.9706-9-11.562-4.2798-1.033-8.8936-5.5406-5.6562-9.9062 0.97297-2.5428 5.9166-2.7503 2.4688-5.3438-2.8756-4.0077-0.52422-8.7843 2.2812-12.031 3.5833-7.5188-4.9697-13.163-10.156-16.906-18.172-10.716-38.299-19.003-59.75-18.281zm-7.125 62c-1.3714 1.8098-7.5677 2.7009-4.7812 4.25 1.7086-2.885 6.0915-1.7453 7.9062-1-1.1387-0.86623-2.2715-2.6789-3.125-3.25zm-6.75 17.781c-3.7916 3.6525-9.2267-0.24843-13.281 1.5938-2.0001 2.0285 1.9879 4.4911 1.7188 6.875 1.2073 2.8793 1.8104 7.784 2.4688 9.625 0.6464-5.339 5.6044-9.4432 10.219-10.594 0.38688-2.4186-0.44639-5.8392-1.125-7.5zm-8.5625 24.125c0.74396 6.8758-0.64387 13.86 1.8125 20.344 0.8551 4.7855-1.9526 9.6383-6.25 11.375-1.245 5.3767-2.6268 10.608-6.0312 15-3.6339 6.5875-11.18 12.683-10.781 20.531 2.5993 0.98528 5.9676-1.1462 8.9375-0.0312 6.6575 0.63803 13.684 3.8015 20.125 2.5625 1.688-10.107-6.294-21.11 0.1875-30.5 1.6633-7.1581-6.6688-11.931-5.8438-19.188-0.54633-6.6698 1.2042-14.153-2.1562-20.094z" fill="#ebb338" filter="url(#ad)" opacity=".4"/>
  <path d="m705.97-3.5141c-17.592 2.0511-35.228 8.5342-51.156 14.562 3.0774 3.7685 6.3849-0.96661 10.094-0.15625 14.468-0.28558 20.742 15.591 33.344 19.688 6.812-5.891 16.73-3.2519 24.562-2.2812 7.1641-5.572 20.427-0.78661 19.375 9.125-0.39302 3.4667-2.2119 8.2073 1.8438 10.219 4.0417 4.6641 1.8533 11.78 0.375 16.531 6.023-0.72816 10.349 4.6236 12.312 9.3125 8.3753-2.7342 19.65 7.3448 13.656 15.531-1.135 1.4134-1.4034 3.7406 1.0625 3.25 8.1872 1.831 18.62 8.6482 15.906 18.344-0.79915 2.5118 0.59456 4.3169 3.0938 3.9688 2.3858 0.86172 4.6426 2.0685 6.6562 3.5625-3.3634-7.999-0.10944-17.26 5.0938-23.344-5.9041-4.9738-15.234 0.46389-21.375-4.625-7.2867-4.8125-6.1733-15.064-2.25-21.719 1.275-2.9913 3.0339-7.4423-1.5-8.4375-6.3455-2.6036-14.858-7.8165-12.406-15.812 0.99774-2.4026 4.7623-4.5472 2.125-7.1562-2.1876-6.2554 7.2018-12.515 1.9688-17.938-9.6024-8.8259-22.199-13.419-34.25-18.156-9.1379-3.0112-18.818-4.7497-28.531-4.4688zm99.594 132.19c2.2689 5.5667 0.97255 12.686-4.5312 15.75 5.8152-2.4701 9.072-10.03 16.219-9.4062 1.6543-0.22866 5.3079-4.9578 1.4062-3.8438-4.7109 0.34194-9.4514-0.83618-13.438-3.3125l0.34375 0.8125zm-121-0.0312c-4.3238 5.2087-3.5739 13.215-9.0312 17.844-2.1175 3.2683-6.7172 7.6717-6.625 10.812 5.7126 0.16828 11.065 2.7414 16.719 3-1.5827-9.4918-3.5742-19.801 0.21875-28.938-0.35175-0.75227-0.53907-2.5324-1.2812-2.7188z" fill="#fff" filter="url(#ac)" opacity=".301"/>
  <path d="m664.96 14.319c4.4452 3.9241 10.779 5.0162 16.42 6.8416 3.7894 1.2261 7.706 2.0594 11.631 2.7367 4.0701 0.70232 8.191 1.1399 12.315 1.3683 7.0589 0.39096 14.139 0 21.209 0 4.7892 0 9.5806 0.14944 14.367 0 3.6542-0.11408 7.3477-0.04065 10.947-0.68417 2.3438-0.41909 4.6872-1.0389 6.8416-2.0525 1.4881-0.70007 3.2694-1.3202 4.105-2.7367 1.3953-2.3653 2.2589-5.9602 0.68416-8.21-1.4911-2.1302-5.197-0.89586-7.5258-2.0525-3.35-1.6638-5.4347-5.4195-8.8942-6.8416-3.4011-1.3981-7.2765-1.1398-10.947-1.3683-5.0075-0.31176-10.036-0.13921-15.052 0-4.1097 0.11407-8.2445 0.10578-12.315 0.68417-3.0124 0.42804-5.8607 1.8162-8.8942 2.0525-3.1912 0.24861-6.3817-0.84952-9.5783-0.68417-3.9316 0.20338-7.6992 2.2564-11.631 2.0525-1.658-0.08599-3.1293-1.4044-4.7892-1.3683-1.442 0.03133-2.7825 0.79267-4.105 1.3683-2.6201 1.1405-6.7467 1.3557-7.5258 4.105-0.50131 1.769 1.3583 3.5723 2.7367 4.7892z" fill="#fff" filter="url(#ab)" opacity=".3445"/>
  <path transform="translate(-.96756,-.48378)" d="m721.12 3.25c-4.1472 0.11511-8.2054 0.10374-12.094 0.65625-2.6004 0.36949-5.5026 1.8189-9.0312 2.0938-3.7314 0.29068-6.937-0.82655-9.625-0.6875-3.3211 0.1718-7.1432 2.3046-11.812 2.0625-1.3123-0.06806-2.2936-0.57709-3.0625-0.90625s-1.3221-0.47533-1.625-0.46875c-0.78144 0.01698-1.8789 0.58112-3.3438 1.2188-1.6126 0.70192-3.3135 1.0085-4.5625 1.4688s-1.7266 0.85142-1.875 1.375c-0.0315 0.11128-0.0317 0.39016 0.375 0.96875s1.1201 1.2601 1.7812 1.8438c3.897 3.4402 9.8901 4.5515 15.719 6.4375 3.6666 1.1864 7.5042 2.0196 11.375 2.6875 3.9798 0.68675 7.9961 1.0873 12.062 1.3125 6.9164 0.38306 13.984 0 21.125 0 4.8294 0 9.6062 0.14693 14.312 0 3.7305-0.11646 7.3172-0.02794 10.656-0.625 2.2333-0.39934 4.4306-0.9915 6.375-1.9062 1.616-0.76026 2.8937-1.3647 3.25-1.9688 0.57018-0.96655 1.0349-2.252 1.1875-3.4062s-0.0216-2.1246-0.4375-2.7188c-0.21331-0.30474-0.71254-0.46652-2-0.5625s-3.0379 0.0064-4.8125-0.875c-2.0528-1.0195-3.5226-2.5333-4.875-3.8438s-2.5742-2.4028-3.875-2.9375c-2.8488-1.1711-6.4703-0.97954-10.312-1.2188-4.883-0.304-9.8513-0.13944-14.875 0z" fill="#faec6a" filter="url(#aa)" opacity=".7826"/>
  <path d="m710.51 15.694-1.0177 8.0096-22.415-15.022 2.5656-5.6444z" fill="#f9e34d"/>
  <path d="m709.53 23.491 13.722-2.1355 14.89-0.96756-1.344-7.2567-14.513 0.48378-12.578 1.4513z" fill="url(#w)"/>
  <path d="m736.85 13.128-23.946-13.341-23.604 3.0787 20.525 12.999z" fill="url(#o)"/>
 </g>
</svg>
